<?xml version="1.0" encoding="UTF-8" standalone="no"?>
<svg
   xmlns:dc="http://purl.org/dc/elements/1.1/"
   xmlns:cc="http://creativecommons.org/ns#"
   xmlns:rdf="http://www.w3.org/1999/02/22-rdf-syntax-ns#"
   xmlns:svg="http://www.w3.org/2000/svg"
   xmlns="http://www.w3.org/2000/svg"
   id="svg6186"
   version="1.1"
   viewBox="0 0 26.458334 10.176767"
   height="10.176766mm"
   width="26.458334mm">
  <defs
     id="defs6180" />
  <metadata
     id="metadata6183">
    <rdf:RDF>
      <cc:Work
         rdf:about="">
        <dc:format>image/svg+xml</dc:format>
        <dc:type
           rdf:resource="http://purl.org/dc/dcmitype/StillImage" />
        <dc:title></dc:title>
      </cc:Work>
    </rdf:RDF>
  </metadata>
  <g
     transform="translate(-132.25808,-461.51061)"
     id="layer1">
    <g
       style="fill:#ffffff"
       transform="translate(307.73354,361.21435)"
       id="layer1-6">
      <g
         transform="matrix(1.3568244,0,0,1.3568244,-262.7206,-167.01722)"
         style="fill:#ffffff"
         id="g7680">
        <path
           style="fill:#ffffff;stroke-width:0.26458332"
           d="m 73.363359,197.01408 v 2.52863 c -0.377561,-0.20506 -0.80989,-0.32147 -1.269736,-0.32147 -1.46685,0 -2.656152,1.18507 -2.656152,2.64636 0,1.46182 1.189302,2.64689 2.656152,2.64689 1.46685,0 2.656152,-1.18507 2.656152,-2.64689 v -4.85352 z m -1.269471,6.11849 c -0.700881,0 -1.269471,-0.56647 -1.269471,-1.26497 0,-0.69824 0.568325,-1.26444 1.269471,-1.26444 0.701146,0 1.269735,0.56647 1.269735,1.26444 -2.64e-4,0.6985 -0.568589,1.26497 -1.269735,1.26497 z"
           id="path5523" />
        <rect
           style="fill:#ffffff;stroke-width:0.26458332"
           x="67.601524"
           y="199.321"
           width="1.3864166"
           height="5.0432229"
           id="rect5525" />
        <path
           style="fill:#ffffff;stroke-width:0.26458332"
           d="m 77.894084,203.13257 c -0.317236,0 -0.607219,-0.11668 -0.829998,-0.30903 l 2.09497,-0.87021 v 0 l 1.348317,-0.56013 c -0.224367,-1.23507 -1.308894,-2.17196 -2.613289,-2.17196 -1.466586,0 -2.656152,1.18507 -2.656152,2.64636 0,1.46182 1.189566,2.64689 2.656152,2.64689 1.176072,0 2.173022,-0.76226 2.522272,-1.81795 l -1.56845,0.004 c -0.232568,0.26379 -0.573087,0.4318 -0.953822,0.4318 z m 0,-2.52968 c 0.293952,0 0.563827,0.10028 0.778668,0.26723 l -2.039673,0.85725 c 0.07038,-0.63235 0.607748,-1.12448 1.261005,-1.12448 z"
           id="path5527" />
        <path
           style="fill:#ffffff;stroke-width:0.26458332"
           d="m 80.961927,204.36394 h 1.349375 v -2.79453 -0.0492 c -0.0016,-0.29554 0.01297,-0.57679 0.198967,-0.76279 0.203729,-0.20452 0.61595,-0.31274 1.192742,-0.31274 h 0.09816 v -1.34858 h -0.09816 c -0.956998,0 -1.680105,0.23865 -2.148682,0.70961 -0.59637,0.59902 -0.593195,1.35652 -0.592137,1.72032 v 2.83792 z"
           id="path5529" />
        <path
           style="fill:#ffffff;stroke-width:0.26458332"
           d="m 68.987944,197.02943 c -2.64e-4,0 -5.29e-4,-2.7e-4 -7.94e-4,-2.7e-4 -0.765704,0 -1.385623,0.6903 -1.385623,1.542 h 1.386417 z"
           id="path5531" />
        <path
           style="fill:#ffffff;stroke-width:0.26458332"
           d="m 67.041934,203.01536 c -0.576792,0 -0.989013,-0.10848 -1.192742,-0.31273 -0.185737,-0.18654 -0.200025,-0.46779 -0.198702,-0.76333 v -0.0487 -0.1823 -2.61223 -2.08201 h -1.349375 v 4.69424 0 0.22596 c -0.0013,0.3638 -0.0045,1.1213 0.591873,1.72032 0.469106,0.47069 1.191948,0.70961 2.148681,0.70961 h 0.09816 v -1.34885 z"
           id="path5533" />
      </g>
    </g>
  </g>
</svg>
