<svg xmlns="http://www.w3.org/2000/svg" width="123.318" height="13.435"><g fill="#c41230"><path d="M80.018 12.951V9.49s.123-1.817-1.15-1.817c-1.432 0-1.237 1.74-1.237 1.74s-.016 1.943-.016 3.538h-5.278V5.242h5.3v.574c2.935-1.532 5.2-1.3 6.547-.159a3.337 3.337 0 01.806 2.369v4.924h-4.973zm-27.292 0v-2.088c0-1.858.086-2.95-1.282-2.95-1.574 0-1.361 1.213-1.361 2.763v2.274h-5.389V1.342h5.393v4.136c1.514-.5 3.89-.961 5.687-.189a3.044 3.044 0 011.893 2.436v5.225h-4.94zM5.884 0v5.411c0 .363.79.41 1.185.056A55.645 55.645 0 0011.184 0h3.983c-1.1 1.694-2.238 3.654-3.514 5.562 0 0 .347-.137.974.5.7.72 3.934 6.885 3.934 6.885H9.579c-1.037-2.584-1.333-3.573-2.1-3.91-.751-.332-1.592-.2-1.592.151v3.762H0V0zm11.077 5.28h5.389v7.67h-5.389zm2.6-.48c1.481 0 2.689-.857 2.689-1.917S21.039.971 19.557.971s-2.686.861-2.686 1.911S18.073 4.8 19.557 4.8m89.374.442v7.709h-5.388m6.8-1.6a4.643 4.643 0 01-.6-4.045 4.7 4.7 0 013.794-2.69 13.533 13.533 0 014.652.516V1.024h5.127V12.95h-5.127s-.008-.7 0-.679c-2.4.961-6.228 1.266-7.848-.915m7.069-1.323a1.344 1.344 0 00.765-.454c.007-.341.031-1.032 0-1.45a1.891 1.891 0 00-2.358-.195c-1.127 1.229.323 2.382 1.592 2.1m-22.786.654h-5.105l-1.078 2.263h-2.79l4.933-10.89c.708-1.49-1.05-1.481-.255-1.867h7.094l5.388 12.757h-7.185l-1-2.263zM90.85 7.8l2.492-.017-1.21-2.858L90.85 7.8z"/><path d="M103.542 5.28h5.389v7.668h-5.388zm2.6-.48c1.485 0 2.688-.857 2.688-1.917s-1.2-1.911-2.688-1.911-2.688.861-2.688 1.911 1.2 1.917 2.689 1.917m-80.708 7.5c1.7 1.644 4 1.205 6.017.516a2.65 2.65 0 00.636-.315 1.477 1.477 0 00.266-.2v-1.56s-1.348.693-2 .064a1.381 1.381 0 01-.358-.95V8.298s-.015-.3.059-.373c.119-.114.428-.06.428-.06h1.868V5.631h-1.89a.516.516 0 01-.413-.093c-.064-.059-.051-.336-.051-.336v-1.8h-5v1.82a.591.591 0 01-.045.292c-.072.121-.329.116-.329.116h-1.278v2.235h1.175a.417.417 0 01.357.07c.055.057.016.363.016.363v2.237a2.329 2.329 0 00.539 1.767m8.586-.682a3.706 3.706 0 01-.8-4.426c2-3.346 7.84-3.372 10.374-1.538v2.307a4.865 4.865 0 00-3.991-.385 1.486 1.486 0 00-.8 2.115c1 1.35 2.811.963 4.008.58 1.045-.466.8-.375.8.192l-.019 1.924c-2.795 1.347-7.382 1.347-9.574-.77m32.061-3.678c.008-.348-.1-.987-.83-.987a.924.924 0 00-1.034.986h1.864zm-7.332 1.795a4.305 4.305 0 01.546-2.988c.992-1.536 3.336-2.3 5.366-2.3 2.052 0 4.376.383 5.569 1.728a5.524 5.524 0 01.946 3.757h-6.909c0 .768 1.062 1.1 1.987 1.226a15.215 15.215 0 004.771-.767v1.767s-1.35 1.212-6.314 1.159c-3.147-.033-5.738-.973-5.964-3.581"/></g></svg>