<?xml version="1.0" encoding="UTF-8"?>
<svg xmlns="http://www.w3.org/2000/svg" version="1.1" viewBox="0 0 187 49">
  <defs>
    <style>
      .cls-1 {
        fill: #fff;
      }

      .cls-2 {
        fill: none;
        stroke: #e6ff94;
        stroke-miterlimit: 10;
      }
    </style>
  </defs>
  <!-- Generator: Adobe Illustrator 28.7.1, SVG Export Plug-In . SVG Version: 1.2.0 Build 142)  -->
  <g>
    <g id="Capa_2">
      <g id="Capa_1-2">
        <path class="cls-2" d="M25.5.5h136.4c13.4,0,24.2,10.6,24.2,23.8h0c0,13.1-10.8,23.8-24.2,23.8H25.5c-13.4,0-24.2-10.6-24.2-23.8h0C1.3,11.1,12.1.5,25.5.5Z"/>
        <path class="cls-1" d="M59,39.2l-7.4-7.9c4.6-7.2,3-16.9-3.8-21.9s-16-3.1-20.6,4.1c-4.6,7.2-3,16.9,3.8,21.8,5.5,4,12.8,3.6,17.9-.9l7.3,7.8s2.8-3,2.8-3ZM39.4,33.8c-2.9,0-5.6-1.2-7.6-3.3-4.2-4.4-4.2-11.7,0-16.1,4.2-4.4,11-4.4,15.2,0,4.2,4.4,4.2,11.7,0,16.1-2,2.2-4.7,3.3-7.6,3.3h0Z"/>
        <path class="cls-1" d="M73.8,18.5c.5.2.9.4,1.2.8.3.4.4.9.4,1.4s-.3,1.4-.9,1.9c-.6.4-1.5.6-2.7.6h-4.7v-9.1h4.4c1.1,0,2,.2,2.6.6.6.4.9,1,.9,1.7s-.1.8-.3,1.2c-.2.4-.5.6-.9.8h0ZM69.2,15.7v2.1h2.1c.5,0,.9,0,1.2-.3s.4-.5.4-.8-.1-.6-.4-.8c-.3-.2-.7-.3-1.2-.3,0,0-2.1,0-2.1,0ZM71.6,21.6c.6,0,1,0,1.2-.3.3-.2.4-.5.4-.8,0-.8-.6-1.1-1.7-1.1h-2.5v2.2h2.5ZM85.2,14.1v9.1h-2v-1.1c-.6.8-1.5,1.3-2.8,1.3s-1.9-.3-2.5-1c-.6-.7-.9-1.7-.9-2.9v-5.3h2.1v5.3c0,.7.2,1.3.5,1.6.3.4.8.5,1.4.5s1.1-.2,1.5-.6.6-1,.6-1.8v-5.1s2.1,0,2.1,0ZM90.3,23.3c-.7,0-1.4-.1-2.1-.3-.7-.2-1.2-.5-1.6-.8l.7-1.6c.4.3.8.5,1.4.7s1.1.3,1.6.3,1,0,1.3-.3c.3-.2.4-.4.4-.7s0-.4-.3-.5c-.2-.1-.4-.3-.7-.4-.3,0-.6-.2-1.1-.3-.7-.2-1.3-.3-1.7-.5-.4-.2-.8-.4-1.1-.8-.3-.4-.5-.9-.5-1.5s.1-1,.4-1.4c.3-.4.7-.8,1.3-1s1.3-.4,2.1-.4,1.2,0,1.7.2c.6.1,1,.3,1.5.6l-.7,1.6c-.8-.5-1.7-.7-2.5-.7s-1,.1-1.3.3c-.3.2-.4.4-.4.8s.2.5.5.7c.3.1.8.3,1.5.4.7.2,1.3.3,1.7.5.4.2.8.4,1.1.8.3.4.5.8.5,1.4s-.2,1-.4,1.4c-.3.4-.7.8-1.3,1s-1.3.4-2.1.4h0ZM100,23.3c-.9,0-1.8-.2-2.5-.6-.8-.4-1.3-1-1.8-1.7-.4-.7-.6-1.5-.6-2.4s.2-1.7.6-2.4c.4-.7,1-1.3,1.8-1.7.8-.4,1.6-.6,2.5-.6s1.5.1,2.1.4c.6.3,1.2.7,1.6,1.2l-1.3,1.2c-.6-.7-1.4-1.1-2.3-1.1s-1.1.1-1.5.4c-.4.2-.8.6-1,1-.2.4-.4.9-.4,1.5s.1,1.1.4,1.5c.2.4.6.8,1,1,.4.2.9.4,1.5.4.9,0,1.7-.4,2.3-1.1l1.3,1.2c-.4.5-1,.9-1.6,1.2s-1.4.4-2.1.4h0ZM109.2,13.9c.8,0,1.6.2,2.2.5.6.3,1.1.8,1.5,1.5.3.6.5,1.4.5,2.3v5h-2.1v-2.2h-4.2v2.2h-2.1v-5c0-.9.2-1.7.5-2.3.3-.6.8-1.1,1.5-1.5.6-.3,1.4-.5,2.2-.5h0ZM111.3,19.3v-1.3c0-.8-.2-1.3-.6-1.7-.4-.4-.9-.6-1.5-.6s-1.2.2-1.5.6c-.4.4-.6,1-.6,1.7v1.3h4.2ZM115.5,14.1h4.1c1,0,1.9.2,2.6.6.8.4,1.3.9,1.8,1.6.4.7.6,1.5.6,2.4s-.2,1.7-.6,2.4c-.4.7-1,1.2-1.8,1.6-.8.4-1.6.6-2.6.6h-4.1s0-9.1,0-9.1ZM119.5,21.5c.9,0,1.6-.2,2.2-.8.6-.5.8-1.2.8-2.1s-.3-1.5-.8-2c-.5-.5-1.3-.8-2.2-.8h-1.9v5.6h1.9ZM130.6,23.3c-.9,0-1.8-.2-2.6-.6-.8-.4-1.3-1-1.8-1.7-.4-.7-.6-1.5-.6-2.4s.2-1.7.6-2.4c.4-.7,1-1.3,1.8-1.7.8-.4,1.6-.6,2.6-.6s1.8.2,2.6.6c.8.4,1.4,1,1.8,1.7.4.7.6,1.5.6,2.4s-.2,1.7-.6,2.4c-.4.7-1,1.3-1.8,1.7s-1.6.6-2.6.6ZM130.6,21.5c.5,0,1-.1,1.5-.4.4-.2.8-.6,1-1,.2-.4.4-.9.4-1.5s-.1-1.1-.4-1.5c-.2-.4-.6-.8-1-1s-.9-.4-1.5-.4-1,.1-1.5.4c-.4.2-.8.6-1,1-.2.4-.4.9-.4,1.5s.1,1.1.4,1.5c.2.4.6.8,1,1,.4.2.9.4,1.5.4ZM143,23.2l-1.8-2.5h-1.9v2.5h-2.1v-9.1h3.9c.8,0,1.5.1,2.1.4.6.3,1.1.6,1.4,1.1s.5,1.1.5,1.8-.2,1.3-.5,1.8c-.3.5-.8.9-1.4,1.1l2,2.9h-2.3,0ZM142.9,17.4c0-.5-.2-.9-.5-1.2-.3-.3-.8-.4-1.4-.4h-1.7v3.2h1.7c.6,0,1.1-.1,1.4-.4s.5-.7.5-1.2h0ZM67.1,29.1h4.1c1,0,1.9.2,2.6.6.8.4,1.3.9,1.8,1.6.4.7.6,1.5.6,2.4s-.2,1.7-.6,2.4c-.4.7-1,1.2-1.8,1.6-.8.4-1.6.6-2.6.6h-4.1v-9.1ZM71.1,36.5c.9,0,1.6-.2,2.2-.8.6-.5.8-1.2.8-2.1s-.3-1.5-.8-2c-.5-.5-1.3-.8-2.2-.8h-1.9v5.6h1.9ZM85.3,37.4c-.4.3-1,.5-1.6.7-.7.2-1.3.2-2.1.2s-1.7-.1-2.3-.3-1.1-.5-1.5-1c-.3-.4-.5-.9-.5-1.4s.1-.9.4-1.3c.3-.4.6-.7,1.1-.8-.4-.2-.6-.5-.8-.8-.2-.3-.3-.7-.3-1.1s.2-.9.5-1.4c.3-.4.8-.7,1.4-1,.6-.2,1.4-.4,2.3-.4s1.2,0,1.7.2c.6.1,1.1.3,1.5.5l-.6,1.6c-.8-.4-1.6-.6-2.5-.6s-1.2.1-1.5.3c-.3.2-.5.5-.5.8s.1.6.3.7c.2.2.6.2,1.1.2h2.5v1.7h-2.6c-.5,0-.9,0-1.2.3-.3.2-.4.5-.4.8s.2.7.6.9c.4.2.9.3,1.7.3s1.1,0,1.6-.2c.5-.2,1-.3,1.4-.6l.7,1.6h0ZM96,38.2l-1.8-2.5h-1.9v2.5h-2.1v-9.1h3.9c.8,0,1.5.1,2.1.4.6.3,1.1.6,1.4,1.1s.5,1.1.5,1.8-.2,1.3-.5,1.8c-.3.5-.8.9-1.4,1.1l2,2.9h-2.3,0ZM95.9,32.4c0-.5-.2-.9-.5-1.2-.3-.3-.8-.4-1.4-.4h-1.7v3.2h1.7c.6,0,1.1-.1,1.4-.4s.5-.7.5-1.2h0ZM107.2,37.4c-.4.3-1,.5-1.6.7-.7.2-1.3.2-2.1.2s-1.7-.1-2.3-.3-1.1-.5-1.5-1c-.3-.4-.5-.9-.5-1.4s.1-.9.4-1.3c.3-.4.6-.7,1.1-.8-.4-.2-.6-.5-.8-.8-.2-.3-.3-.7-.3-1.1s.2-.9.4-1.4c.3-.4.8-.7,1.4-1,.6-.2,1.4-.4,2.3-.4s1.2,0,1.7.2c.6.1,1.1.3,1.5.5l-.6,1.6c-.8-.4-1.6-.6-2.5-.6s-1.2.1-1.5.3c-.3.2-.5.5-.5.8s.1.6.3.7c.2.2.6.2,1.1.2h2.5v1.7h-2.6c-.5,0-.9,0-1.2.3-.3.2-.4.5-.4.8s.2.7.6.9c.4.2.9.3,1.7.3s1.1,0,1.6-.2c.5-.2,1-.3,1.4-.6l.7,1.6h0ZM112.6,38.3c-.9,0-1.8-.2-2.5-.6-.8-.4-1.3-1-1.8-1.7-.4-.7-.6-1.5-.6-2.4s.2-1.7.6-2.4c.4-.7,1-1.3,1.8-1.7.8-.4,1.6-.6,2.5-.6s1.5.1,2.1.4c.6.3,1.2.7,1.6,1.2l-1.3,1.2c-.6-.7-1.4-1.1-2.3-1.1s-1.1.1-1.5.4c-.4.2-.8.6-1,1-.2.4-.4.9-.4,1.5s.1,1.1.4,1.5c.2.4.6.8,1,1,.4.2.9.4,1.5.4.9,0,1.7-.4,2.3-1.1l1.3,1.2c-.4.5-1,.9-1.6,1.2s-1.4.4-2.1.4h0ZM125.1,37.4c-.4.3-1,.5-1.6.7-.7.2-1.3.2-2.1.2s-1.7-.1-2.3-.3-1.1-.5-1.5-1c-.3-.4-.5-.9-.5-1.4s.1-.9.4-1.3c.3-.4.6-.7,1.1-.8-.4-.2-.6-.5-.8-.8-.2-.3-.3-.7-.3-1.1s.2-.9.5-1.4c.3-.4.8-.7,1.4-1,.6-.2,1.4-.4,2.3-.4s1.2,0,1.7.2c.6.1,1.1.3,1.5.5l-.6,1.6c-.8-.4-1.6-.6-2.5-.6s-1.2.1-1.5.3c-.3.2-.5.5-.5.8s.1.6.3.7c.2.2.6.2,1.1.2h2.5v1.7h-2.6c-.5,0-.9,0-1.2.3-.3.2-.4.5-.4.8s.2.7.6.9c.4.2.9.3,1.7.3s1.1,0,1.6-.2c.5-.2,1-.3,1.4-.6l.7,1.6h0ZM132.9,31.6c-.8-.5-1.6-.7-2.5-.9v7.4h-2.1v-7.4c-.9.1-1.7.4-2.5.9l-.7-1.6c.6-.4,1.3-.6,2-.9.7-.2,1.5-.3,2.2-.3s1.5.1,2.3.3c.7.2,1.4.5,2,.9l-.7,1.6h0ZM138.5,28.9c.8,0,1.6.2,2.2.5.6.3,1.1.8,1.5,1.5.4.6.5,1.4.5,2.3v5h-2.1v-2.2h-4.2v2.2h-2.1v-5c0-.9.2-1.7.5-2.3s.8-1.1,1.5-1.5c.6-.3,1.4-.5,2.2-.5h0ZM140.6,34.3v-1.3c0-.8-.2-1.3-.6-1.7-.4-.4-.9-.6-1.5-.6s-1.2.2-1.5.6c-.4.4-.6,1-.6,1.7v1.3h4.2ZM147.7,38.3c-.7,0-1.4,0-2.1-.3-.7-.2-1.2-.5-1.6-.8l.7-1.6c.4.3.9.5,1.4.7s1.1.3,1.6.3,1,0,1.3-.3c.3-.2.4-.4.4-.7s0-.4-.3-.5c-.2-.2-.4-.3-.6-.3-.3,0-.6-.2-1.1-.3-.7-.2-1.3-.3-1.7-.5s-.8-.4-1.1-.8c-.3-.4-.5-.8-.5-1.5s.1-1,.4-1.4c.3-.4.7-.8,1.3-1,.6-.2,1.3-.4,2.1-.4s1.1,0,1.7.2c.6.1,1,.3,1.5.6l-.6,1.6c-.8-.5-1.7-.7-2.5-.7s-1,.1-1.3.3-.4.4-.4.8.2.6.5.7c.3.2.8.3,1.5.4.7.2,1.3.3,1.7.5s.8.4,1.1.8c.3.4.5.8.5,1.4s-.1,1-.4,1.4c-.3.4-.7.8-1.3,1s-1.3.4-2.1.4h0Z"/>
      </g>
    </g>
  </g>
</svg>