<?xml version="1.0" encoding="UTF-8"?>
<svg xmlns="http://www.w3.org/2000/svg" version="1.1" viewBox="0 0 187 49">
  <defs>
    <style>
      .cls-1 {
        stroke-width: .5px;
      }

      .cls-1, .cls-2, .cls-3 {
        fill: #fff;
      }

      .cls-1, .cls-4 {
        stroke-miterlimit: 10;
      }

      .cls-1, .cls-3 {
        stroke: #fff;
      }

      .cls-4 {
        fill: none;
        stroke: #e6ff94;
      }
    </style>
  </defs>
  <!-- Generator: Adobe Illustrator 28.7.1, SVG Export Plug-In . SVG Version: 1.2.0 Build 142)  -->
  <g>
    <g id="Capa_2">
      <g id="Capa_1-2">
        <path class="cls-4" d="M25.1.8h136.6c13.4,0,24.3,10.6,24.3,23.7h0c0,13.1-10.9,23.7-24.3,23.7H25.1C11.7,48.2.8,37.6.8,24.5h0C.8,11.4,11.7.8,25.1.8Z"/>
        <path class="cls-3" d="M49,11.6v-.5h-21v30.7h21V11.6ZM27.7,10.5h21.5c.1,0,.2.1.2.3v31.3c0,.2-.2.3-.2.3h-21.5c-.1,0-.2-.1-.2-.3V10.8c0-.2.1-.3.2-.3Z"/>
        <path class="cls-3" d="M27.5,11.1h0c-1,.1-1.9-.3-2.6-1.1-.2-.3-.3-.6-.3-1s.2-.7.4-.9h0s0,0,0,0c.6-.7,2.2-1.4,5.2-1.4h17.7c0,0,0,0,.1,0,0,0,0,0,0,.1h0s0,0,0,0l1.2,3.4s0,0,0,.1c0,0,0,0,0,0,0,.2-.1.3-.2.4-.1,0-.3,0-.3-.2h0s0,0,0,0l-1-3v-.3h-17.6c-1.4,0-2.4.1-3.2.3s-1.4.5-1.8.9c0,0-.1.2-.2.3,0,0,0,.2,0,.4,0,.3.2.5.3.6h0c.6.6,1.4,1,2.3.9.1,0,.2.1.2.3s-.1.3-.2.3h0Z"/>
        <path class="cls-3" d="M25.3,41h0c-.5-.6-.8-1.3-.8-2.2V8.9c0-.2.1-.3.2-.3s.2.1.2.3v29.9c0,.7.2,1.3.7,1.8h0s0,0,0,0c.5.6,1.2,1,1.9,1.2h0s0,0,0,0c0,0,0,0,0,0,0,0,0,.1,0,.2h0s0,0,0,0c0,0,0,0,0,.1,0,0-.1,0-.1,0h0c-.8-.2-1.5-.6-2.1-1.3h0Z"/>
        <path class="cls-1" d="M40,27.8l1-1c0,0,.2-.1.3,0,.3,0,.5.1.8.1,1.3,0,2.5-.7,3.4-1.7,1.7-1.7,2.1-4,1-5.2-.4-.4-1-.6-1.5-.6-1.3,0-2.5.7-3.4,1.7-1.3,1.4-1.9,3.1-1.5,4.4,0,.1,0,.2,0,.4l-1,1-.9-.9c-.1-.1-.2-.4-.2-.6.3-1,0-2-.6-2.7l-3.8-4.2c0,0-.2,0-.3,0,0,0,0,.2,0,.3l3.9,4.1c.6.6.8,1.5.5,2.3-.1.4,0,.8.3,1l.9.9-.4.4-.8-1c-.3-.3-.7-.4-1-.3-.8.2-1.6,0-2.2-.6l-3.8-4.1c0,0-.2,0-.3,0s0,.2,0,.3l3.9,4.1c.6.7,1.7.9,2.5.6.2,0,.5,0,.6.2l.8.9-5.2,5.3c-.3.4-.3,1,0,1.4.1.2.4.3.6.3s.5,0,.7-.3l5.1-5.5,4.9,5.5c.1.2.4.3.6.3s.5,0,.6-.3c.3-.4.3-1,0-1.4l-5.5-5.2h0ZM33.7,34.1c-.1.2-.3.2-.4.2-.3,0-.5-.3-.5-.6s0-.3.2-.4l7.2-7.3c.2-.2.3-.4.2-.7-.3-1.1.2-2.7,1.4-4,.8-.9,1.9-1.5,3.1-1.6.5,0,1,.1,1.2.5,1,1,.5,3-1,4.6-.8.9-1.9,1.5-3.1,1.7-.2,0-.4,0-.7-.1h-.2c-.1,0-.3,0-.4.2l-7,7.6h0ZM45,34.1c-.1.2-.3.2-.4.2s-.3,0-.4-.2l-4.9-5.5.5-.5,5.2,5.2c.1.2.1.3.1.4,0,.2,0,.3,0,.4ZM32.1,19.6c0,0,0-.2,0-.3s.2,0,.3,0l3.8,4c0,0,0,.2,0,.3,0,0,0,0-.1,0s0,0-.1,0l-3.8-4h0ZM31.1,20.6c0,0,0-.2,0-.3,0,0,.2,0,.3,0l3.8,4c0,0,0,.2,0,.3,0,0,0,0-.1,0s0,0-.1,0l-3.8-4h0Z"/>
        <path class="cls-2" d="M69.9,23l-1.8-2.5h-1.9v2.5h-2.1v-9.1h3.9c.8,0,1.5.1,2.1.4.6.3,1.1.6,1.4,1.1.3.5.5,1.1.5,1.7s-.2,1.3-.5,1.8c-.3.5-.8.9-1.4,1.1l2,2.9h-2.3ZM69.8,17.2c0-.5-.2-.9-.5-1.2-.3-.3-.8-.4-1.4-.4h-1.7v3.2h1.7c.6,0,1.1-.1,1.4-.4s.5-.7.5-1.2h0ZM81.1,22.2c-.4.3-1,.5-1.6.7-.7.2-1.3.2-2.1.2s-1.7-.1-2.3-.3-1.1-.5-1.5-1c-.3-.4-.5-.9-.5-1.4s.1-.9.4-1.3c.3-.4.6-.6,1.1-.8-.4-.2-.6-.5-.8-.8-.2-.3-.3-.7-.3-1.1s.2-.9.5-1.4c.3-.4.8-.7,1.4-1,.6-.2,1.4-.4,2.3-.4s1.2,0,1.7.2c.6.1,1.1.3,1.5.5l-.6,1.6c-.8-.4-1.6-.6-2.5-.6s-1.2.1-1.5.3c-.3.2-.5.5-.5.8s.1.6.3.7c.2.2.6.2,1.1.2h2.5v1.7h-2.6c-.5,0-.9,0-1.2.3-.3.2-.4.5-.4.8s.2.6.6.9c.4.2.9.3,1.7.3s1.1,0,1.6-.2c.5-.1,1-.4,1.4-.6l.7,1.6h0ZM86.5,23.2c-.9,0-1.8-.2-2.5-.6-.8-.4-1.3-1-1.8-1.7-.4-.7-.6-1.5-.6-2.4s.2-1.7.6-2.4c.4-.7,1-1.3,1.8-1.7.8-.4,1.6-.6,2.5-.6s1.5.1,2.1.4c.6.3,1.2.7,1.6,1.2l-1.3,1.2c-.6-.7-1.4-1.1-2.3-1.1s-1.1.1-1.5.4c-.4.2-.8.6-1,1-.2.4-.4.9-.4,1.5s.1,1.1.4,1.5c.2.4.6.8,1,1,.4.2.9.4,1.5.4.9,0,1.7-.4,2.3-1.1l1.3,1.2c-.4.5-1,.9-1.6,1.2s-1.4.4-2.2.4h0ZM99,22.2c-.4.3-1,.5-1.6.7-.7.2-1.3.2-2.1.2s-1.7-.1-2.3-.3-1.1-.5-1.5-1c-.3-.4-.5-.9-.5-1.4s.1-.9.4-1.3c.3-.4.6-.6,1.1-.8-.4-.2-.6-.5-.8-.8-.2-.3-.3-.7-.3-1.1s.2-.9.4-1.4c.3-.4.8-.7,1.4-1,.6-.2,1.4-.4,2.3-.4s1.2,0,1.7.2c.6.1,1.1.3,1.5.5l-.6,1.6c-.8-.4-1.6-.6-2.5-.6s-1.2.1-1.5.3c-.3.2-.5.5-.5.8s.1.6.3.7c.2.2.6.2,1.1.2h2.5v1.7h-2.6c-.5,0-.9,0-1.2.3-.3.2-.4.5-.4.8s.2.6.6.9c.4.2.9.3,1.7.3s1.1,0,1.6-.2c.5-.1,1-.4,1.4-.6l.7,1.6h0ZM106.8,16.5c-.8-.5-1.6-.7-2.5-.9v7.4h-2.1v-7.4c-.9.1-1.7.4-2.5.9l-.7-1.6c.6-.4,1.3-.6,2-.8.7-.2,1.5-.3,2.2-.3s1.5.1,2.3.3c.7.2,1.4.5,2,.8l-.7,1.6ZM112.4,13.7c.8,0,1.6.2,2.2.5s1.1.8,1.5,1.5c.3.6.5,1.4.5,2.3v5h-2.1v-2.2h-4.2v2.2h-2.1v-5c0-.9.2-1.7.5-2.3.3-.6.8-1.1,1.5-1.5s1.4-.5,2.2-.5h0ZM114.5,19.1v-1.3c0-.8-.2-1.3-.6-1.7-.4-.4-.9-.6-1.5-.6s-1.2.2-1.5.6c-.4.4-.6,1-.6,1.7v1.3s4.2,0,4.2,0ZM121.6,23.2c-.7,0-1.4-.1-2.1-.3-.7-.2-1.2-.5-1.6-.8l.7-1.6c.4.3.8.5,1.4.7s1.1.3,1.6.3,1,0,1.3-.3c.3-.2.4-.4.4-.7s0-.4-.3-.5c-.2-.1-.4-.3-.7-.4-.3,0-.6-.2-1.1-.3-.7-.2-1.3-.3-1.7-.5s-.8-.4-1.1-.8c-.3-.4-.5-.9-.5-1.5s.1-1,.4-1.4c.3-.4.7-.8,1.3-1s1.3-.4,2.1-.4,1.2,0,1.7.2c.6.1,1,.3,1.5.6l-.7,1.6c-.8-.5-1.7-.7-2.5-.7s-1,.1-1.3.3-.4.4-.4.8.2.5.5.7c.3.1.8.3,1.5.4.7.2,1.3.3,1.7.5.4.2.8.4,1.1.8.3.4.5.8.5,1.4s-.2,1-.4,1.4c-.3.4-.7.8-1.3,1s-1.3.4-2.1.4h0ZM68,28.9c.8,0,1.5.1,2.1.4.6.3,1.1.6,1.4,1.1s.5,1.1.5,1.8-.2,1.2-.5,1.8c-.3.5-.8.9-1.4,1.1-.6.3-1.3.4-2.1.4h-1.8v2.5h-2.1v-9.1s3.9,0,3.9,0ZM67.9,33.8c.6,0,1.1-.1,1.4-.4.3-.3.5-.7.5-1.2s-.2-.9-.5-1.2c-.3-.3-.8-.4-1.4-.4h-1.7v3.2h1.7ZM78,38.2c-.9,0-1.8-.2-2.6-.6-.8-.4-1.3-1-1.8-1.7-.4-.7-.6-1.5-.6-2.4s.2-1.7.6-2.4,1-1.3,1.8-1.7c.8-.4,1.6-.6,2.6-.6s1.8.2,2.6.6c.8.4,1.3,1,1.8,1.7.4.7.7,1.5.7,2.4s-.2,1.7-.7,2.4c-.4.7-1,1.3-1.8,1.7s-1.6.6-2.6.6ZM78,36.4c.5,0,1-.1,1.5-.4.4-.2.8-.6,1-1,.2-.4.4-.9.4-1.5s-.1-1.1-.4-1.5c-.2-.4-.6-.8-1-1s-.9-.4-1.5-.4-1,.1-1.5.4c-.4.2-.8.6-1,1-.2.4-.4.9-.4,1.5s.1,1.1.4,1.5c.2.4.6.8,1,1,.4.2.9.4,1.5.4ZM90.4,38l-1.8-2.5h-1.9v2.5h-2.1v-9.1h3.9c.8,0,1.5.1,2.1.4.6.3,1.1.6,1.4,1.1s.5,1.1.5,1.8-.2,1.3-.5,1.8c-.3.5-.8.9-1.4,1.1l2,2.9h-2.3,0ZM90.3,32.2c0-.5-.2-.9-.5-1.2-.3-.3-.8-.4-1.4-.4h-1.7v3.2h1.7c.6,0,1.1-.1,1.4-.4s.5-.7.5-1.2h0ZM100.8,38.2c-.7,0-1.4,0-2.1-.3-.7-.2-1.2-.5-1.6-.8l.7-1.6c.4.3.8.5,1.4.7s1.1.3,1.6.3,1,0,1.3-.3c.3-.2.4-.4.4-.7s0-.4-.3-.5c-.2-.2-.4-.3-.7-.3-.3,0-.6-.2-1.1-.3-.7-.2-1.3-.3-1.7-.5-.4-.2-.8-.4-1.1-.8-.3-.4-.5-.8-.5-1.5s.1-1,.4-1.4c.3-.4.7-.8,1.3-1,.6-.2,1.3-.4,2.1-.4s1.2,0,1.7.2c.6.1,1,.3,1.5.6l-.7,1.6c-.8-.5-1.7-.7-2.5-.7s-1,.1-1.3.3-.4.4-.4.8.2.6.5.7c.3.2.8.3,1.5.4.7.2,1.3.3,1.7.5.4.2.8.4,1.1.8.3.4.5.8.5,1.4s-.2,1-.4,1.4c-.3.4-.7.8-1.3,1s-1.3.4-2.1.4h0ZM113.5,37.2c-.4.3-1,.5-1.6.7-.7.2-1.3.2-2.1.2s-1.7-.1-2.3-.3-1.1-.5-1.5-1c-.3-.4-.5-.9-.5-1.4s.1-.9.4-1.3c.3-.4.6-.7,1.1-.8-.4-.2-.6-.5-.8-.8-.2-.3-.3-.7-.3-1.1s.2-.9.5-1.4c.3-.4.8-.7,1.4-1,.6-.2,1.4-.4,2.3-.4s1.2,0,1.7.2c.6.1,1.1.3,1.5.5l-.6,1.6c-.8-.4-1.6-.6-2.5-.6s-1.2.1-1.5.3c-.3.2-.5.5-.5.8s.1.6.3.7c.2.2.6.2,1.1.2h2.5v1.7h-2.6c-.5,0-.9,0-1.2.3-.3.2-.4.5-.4.8s.2.7.6.9c.4.2.9.3,1.7.3s1.1,0,1.6-.2c.5-.2,1-.3,1.4-.6l.7,1.6h0ZM118.9,38.2c-.9,0-1.8-.2-2.5-.6-.8-.4-1.3-1-1.8-1.7-.4-.7-.6-1.5-.6-2.4s.2-1.7.6-2.4c.4-.7,1-1.3,1.8-1.7.8-.4,1.6-.6,2.5-.6s1.5.1,2.1.4c.6.3,1.2.7,1.6,1.2l-1.3,1.2c-.6-.7-1.4-1.1-2.3-1.1s-1.1.1-1.5.4c-.4.2-.8.6-1,1-.2.4-.4.9-.4,1.5s.1,1.1.4,1.5c.2.4.6.8,1,1,.4.2.9.4,1.5.4.9,0,1.7-.4,2.3-1.1l1.3,1.2c-.4.5-1,.9-1.6,1.2s-1.4.4-2.2.4h0ZM128.3,38.2c-.9,0-1.8-.2-2.5-.6-.8-.4-1.3-1-1.8-1.7-.4-.7-.6-1.5-.6-2.4s.2-1.7.6-2.4c.4-.7,1-1.3,1.8-1.7.8-.4,1.6-.6,2.5-.6s1.5.1,2.1.4c.6.3,1.2.7,1.6,1.2l-1.4,1.2c-.6-.7-1.4-1.1-2.3-1.1s-1.1.1-1.5.4c-.4.2-.8.6-1,1-.2.4-.4.9-.4,1.5s.1,1.1.4,1.5c.2.4.6.8,1,1,.4.2.9.4,1.5.4.9,0,1.7-.4,2.3-1.1l1.4,1.2c-.4.5-1,.9-1.6,1.2s-1.4.4-2.1.4h0ZM136.6,30.6v5.7h1.6v1.7h-5.3v-1.7h1.6v-5.7h-1.6v-1.7h5.3v1.7s-1.6,0-1.6,0ZM144.1,38.2c-.9,0-1.8-.2-2.6-.6-.8-.4-1.4-1-1.8-1.7-.4-.7-.6-1.5-.6-2.4s.2-1.7.6-2.4,1-1.3,1.8-1.7c.8-.4,1.6-.6,2.6-.6s1.8.2,2.6.6c.8.4,1.4,1,1.8,1.7.4.7.6,1.5.6,2.4s-.2,1.7-.6,2.4c-.4.7-1,1.3-1.8,1.7s-1.6.6-2.6.6ZM144.1,36.4c.5,0,1-.1,1.5-.4.4-.2.8-.6,1-1,.2-.4.4-.9.4-1.5s-.1-1.1-.4-1.5c-.2-.4-.6-.8-1-1s-.9-.4-1.5-.4-1,.1-1.5.4c-.4.2-.8.6-1,1-.2.4-.4.9-.4,1.5s.1,1.1.4,1.5c.2.4.6.8,1,1,.4.2.9.4,1.5.4ZM144.7,26.3h2.2l-2.4,1.9h-1.6l1.8-1.9h0ZM155.5,28.7c1.1,0,1.9.3,2.5,1,.6.7.9,1.6.9,2.9v5.3h-2.1v-5.3c0-.7-.2-1.3-.5-1.6-.3-.4-.8-.6-1.4-.6s-1.2.2-1.6.6c-.4.4-.6,1-.6,1.7v5.1h-2.1v-9.1h2v1.1c.3-.4.7-.7,1.2-.9.5-.2,1-.3,1.6-.3h0Z"/>
      </g>
    </g>
  </g>
</svg>