<?xml version="1.0" encoding="UTF-8"?><svg id="Capa_2" xmlns="http://www.w3.org/2000/svg" viewBox="0 0 72.49 65.25"><defs><style>.cls-1{fill:#006769;fill-rule:evenodd;}</style></defs><g id="Capa_1-2"><path class="cls-1" d="M43.5,0c.92,0,1.81.35,2.48.99.67.63,1.08,1.5,1.13,2.42.05.92-.25,1.83-.84,2.54-.59.71-1.43,1.16-2.35,1.27l-.42.03h-3.62v3.62h3.63c.86,0,1.72.09,2.57.2l1.24.18c1.33.22,2.96.58,4.75,1.15,4.13,1.3,7.98,3.36,11.35,6.08l.34-.36,2.56-2.56c.65-.65,1.53-1.03,2.45-1.06.92-.03,1.82.3,2.51.9.69.61,1.12,1.46,1.21,2.38.09.92-.18,1.83-.74,2.56l-.3.34-2.56,2.56v23.87c0,4.67-1.8,9.16-5.03,12.53-3.23,3.37-7.64,5.37-12.3,5.57l-.79.02h-29c-4.67,0-9.16-1.8-12.53-5.03-3.37-3.23-5.37-7.64-5.57-12.3l-.02-.79v-23.87l-2.56-2.56C.41,20.04.03,19.16,0,18.24c-.03-.92.3-1.82.9-2.51.61-.69,1.46-1.12,2.38-1.21.92-.09,1.83.18,2.56.74l.34.3,2.56,2.56c.12.12.23.24.33.36,3.37-2.72,7.22-4.79,11.35-6.08,1.56-.49,3.14-.87,4.75-1.15l1.24-.18c.57-.08,1.14-.13,1.72-.17l.86-.03h3.63v-3.62h-3.62c-.92,0-1.81-.35-2.48-.99-.67-.63-1.08-1.5-1.13-2.42-.05-.92.25-1.83.84-2.54.59-.71,1.43-1.16,2.35-1.27l.42-.03h14.5ZM61.62,29.76c-16.3,2.9-31.95,3.05-48.18.44l-2.57-.44v17.36c0,2.77,1.06,5.44,2.96,7.46,1.9,2.02,4.51,3.23,7.27,3.4l.64.02h29c2.77,0,5.44-1.06,7.46-2.96,2.02-1.9,3.23-4.51,3.4-7.27l.02-.64v-17.36ZM43.48,18.12h-14.65s-.65.05-.65.05l-1.09.12-.93.15-.52.1-1.13.25c-3.43.81-6.67,2.27-9.53,4.31,14.09,2.26,28.45,2.26,42.54,0-2.33-1.65-4.91-2.93-7.63-3.78-2.05-.65-4.24-1.15-6.4-1.19Z"/></g></svg>