<?xml version="1.0" encoding="UTF-8"?><svg id="Capa_2" xmlns="http://www.w3.org/2000/svg" xmlns:xlink="http://www.w3.org/1999/xlink" viewBox="0 0 19.45 23.87"><defs><style>.cls-1{fill:none;}.cls-2{clip-path:url(#clippath);}.cls-3{fill:#006769;}</style><clipPath id="clippath"><rect class="cls-1" width="19.45" height="23.87"/></clipPath></defs><g id="Capa_1-2"><g class="cls-2"><path class="cls-3" d="M18.64,1.34c-1.74-1.75-5.82-.46-8.06,1.81-1.52,1.54-1.8,3.21-.92,4.86.14.27.08.63-.16.81L.79,16.48c-.9.81-1.09,2.25-.25,3.17.86.94,2.32.92,3.14-.04l7.61-8.96c.2-.23.53-.31.8-.17,1.62.9,3.26.58,4.78-.94,2.23-2.27,3.53-6.42,1.78-8.19ZM17.35,2.91c-.08.29-.37.46-.66.4-.68-.19-2.79.35-4.2,1.79-.2.21-.55.21-.76,0-.2-.21-.2-.56,0-.77,1.66-1.69,4.16-2.36,5.23-2.08.31.08.47.38.39.67Z"/></g></g></svg>