<?xml version="1.0" encoding="UTF-8"?><svg id="Capa_2" xmlns="http://www.w3.org/2000/svg" viewBox="0 0 82 81"><defs><style>.cls-1{fill:#006769;stroke:#f1ffc4;}</style></defs><g id="Capa_1-2"><path class="cls-1" d="M74.3,23.6h0s0-.02,0-.02c-.67-5.45-3.63-10.16-8.42-13.23-2.83-1.84-6.17-2.75-9.66-2.75s-6.74.91-9.53,2.71c-4.88,3.11-7.88,7.86-8.43,13.41h0c-.73,7.42-3.71,13.87-8.59,18.73-.93.91-1.46,1.93-1.46,3.11,0,.47.09.93.27,1.36.18.43.45.82.78,1.15,0,0,0,0,0,0l4.06,4.01h0s0,0,0,0c.71.69,1.67,1.07,2.66,1.07s1.95-.38,2.66-1.07h0s0,0,0,0c5.03-5.05,11.81-8.09,19.54-8.88,4.14-.42,7.89-2.25,10.83-5.12h0c1.89-1.89,3.34-4.16,4.25-6.65.91-2.5,1.26-5.16,1.02-7.8ZM42.75,4.35h0c4.06-2.58,8.76-3.85,13.46-3.85s9.53,1.31,13.58,3.97h0s0,0,0,0c3.19,2,5.88,4.68,7.88,7.85,2,3.17,3.25,6.73,3.66,10.44.41,3.71-.02,7.46-1.28,10.98-1.25,3.52-3.29,6.71-5.96,9.35-4.26,4.17-9.65,6.55-15.16,7.15-5.79.62-11.15,2.8-15.22,6.82-2.16,2.13-4.98,3.18-7.76,3.18s-5.57-1.05-7.72-3.18l-4.06-4.01h0c-4.26-4.17-4.28-11.02.29-15.53l.12-.12c3.87-3.82,5.96-8.92,6.5-14.36h0c.68-7.22,4.58-14.21,11.66-18.7ZM17.13,71.96l-.26.25.16.33c1.02,2.08.68,4.6-1.09,6.3h0s0,0,0,0c-.77.77-1.74,1.3-2.81,1.53-1.07.23-2.18.14-3.2-.24-1.02-.39-1.9-1.06-2.54-1.93-.64-.87-1-1.91-1.05-2.99l-.02-.46-.46-.02c-1.09-.05-2.15-.41-3.03-1.04-.89-.63-1.57-1.5-1.96-2.51-.39-1-.48-2.1-.25-3.15.23-1.05.77-2.01,1.54-2.77h0c1.73-1.71,4.33-2.08,6.4-1.08l.31.15.25-.24,9.76-9.44c.49.66,1.06,1.38,1.68,1.99l4.06,4.01h0s0,0,0,0c.72.68,1.43,1.28,2.28,1.83l-9.78,9.47Z"/></g></svg>