<?xml version="1.0" encoding="UTF-8"?><svg id="Capa_2" xmlns="http://www.w3.org/2000/svg" viewBox="0 0 71.3 76.67"><defs><style>.cls-1{fill:#006769;}</style></defs><g id="Capa_1-2"><path class="cls-1" d="M13.04,19.17c-1.3,2.11-1.53,3.72-1.53,5.29,0,2.95,3.83,10.04,3.83,13.88s-1.53,5.75-1.53,5.75h-5.75s1.53-2.11,1.53-5.75c0-3.83-3.83-10.92-3.83-13.88,0-1.57.23-3.18,1.53-5.29h5.75ZM32.2,19.17c-1.3,2.11-1.53,3.72-1.53,5.29,0,2.95,3.83,10.04,3.83,13.88s-1.53,5.75-1.53,5.75h5.75s1.53-2.11,1.53-5.75c0-3.83-3.83-10.92-3.83-13.88,0-1.57.23-3.18,1.53-5.29h-5.75ZM19.74,19.17c-1.3,2.11-1.53,3.72-1.53,5.29,0,2.95,3.83,10.08,3.83,13.88s-1.53,5.75-1.53,5.75h5.75s1.53-2.11,1.53-5.75c0-3.83-3.83-10.92-3.83-13.88,0-1.57.23-3.18,1.53-5.29h-5.75ZM59.8,0c-5.9,0-10.77,4.45-11.42,10.16l-4.18,39.67H3.87c-2.3,0-4.18,2.03-3.83,4.33,1.99,12.77,12.96,22.5,25.84,22.5s24.3-10.46,25.72-23.88l4.41-41.67c.19-1.95,1.8-3.45,3.8-3.45,2.11,0,3.83,1.72,3.83,3.83,0,1.15-.38,4.79-.38,4.79l7.55.96s.5-4.06.5-5.75c0-6.32-5.17-11.5-11.5-11.5ZM25.88,69c-7.44,0-14.07-4.72-16.98-11.5h33.69c-2.76,6.82-9.28,11.5-16.71,11.5Z"/></g></svg>