<?xml version="1.0" encoding="UTF-8"?><svg id="Capa_2" xmlns="http://www.w3.org/2000/svg" viewBox="0 0 71 73.12"><defs><style>.cls-1{fill:#006769;}</style></defs><g id="Capa_1-2"><path class="cls-1" d="M23.21,40.78c-.81,0-1.6-.25-2.28-.71-.67-.46-1.2-1.12-1.51-1.89-.31-.77-.39-1.62-.23-2.44.16-.82.55-1.57,1.12-2.16.57-.59,1.3-.99,2.1-1.15.79-.16,1.62-.08,2.37.24.75.32,1.39.86,1.84,1.55.45.69.69,1.51.69,2.34,0,1.12-.43,2.19-1.2,2.98-.77.79-1.81,1.24-2.9,1.24ZM47.79,32.34c-.81,0-1.6.25-2.28.71-.67.46-1.2,1.12-1.51,1.89-.31.77-.39,1.62-.23,2.44.16.82.55,1.57,1.12,2.16.57.59,1.3.99,2.1,1.15.79.16,1.62.08,2.37-.24.75-.32,1.39-.86,1.84-1.55.45-.69.69-1.51.69-2.34,0-1.12-.43-2.19-1.2-2.98s-1.81-1.24-2.9-1.24ZM43.6,48.24c-2.43,1.55-5.24,2.38-8.1,2.38s-5.67-.82-8.1-2.38c-.61-.4-1.35-.53-2.06-.36-.71.16-1.32.61-1.71,1.24-.39.63-.51,1.39-.35,2.12.16.73.59,1.36,1.21,1.76,3.3,2.12,7.12,3.25,11.02,3.25s7.71-1.12,11.02-3.25c.61-.4,1.05-1.03,1.21-1.76.16-.73.03-1.49-.35-2.12-.39-.63-1-1.08-1.71-1.24-.71-.16-1.45-.03-2.06.36ZM71,36.56c0,7.23-2.08,14.3-5.98,20.31-3.9,6.01-9.45,10.7-15.93,13.46-6.49,2.77-13.62,3.49-20.51,2.08s-13.21-4.89-18.18-10.01c-4.96-5.11-8.35-11.63-9.72-18.72C-.69,36.6.02,29.25,2.7,22.57c2.69-6.68,7.24-12.39,13.08-16.41C21.62,2.14,28.48,0,35.5,0c9.41.01,18.44,3.87,25.09,10.72,6.66,6.85,10.4,16.15,10.41,25.84ZM65.54,36.56c0-7.96-3-15.62-8.34-21.37-5.35-5.75-12.64-9.17-20.36-9.53-3.96,5.73-4.07,11.17-4.07,11.22,0,.75.29,1.46.8,1.99.51.53,1.21.82,1.93.82s1.42-.3,1.93-.82c.51-.53.8-1.24.8-1.99s.29-1.46.8-1.99c.51-.53,1.21-.82,1.93-.82s1.42.3,1.93.82c.51.53.8,1.24.8,1.99,0,2.24-.86,4.38-2.4,5.97-1.54,1.58-3.62,2.47-5.79,2.47s-4.26-.89-5.79-2.47c-1.54-1.58-2.4-3.73-2.4-5.97,0-.26.04-5.03,2.89-10.77-5.62,1.04-10.84,3.71-15.05,7.7-4.2,3.99-7.21,9.12-8.68,14.81-1.47,5.69-1.33,11.69.4,17.3,1.73,5.61,4.97,10.59,9.36,14.37,4.38,3.78,9.72,6.19,15.39,6.95,5.67.76,11.43-.16,16.6-2.65,5.18-2.49,9.56-6.45,12.63-11.41,3.07-4.96,4.7-10.73,4.7-16.61Z"/></g></svg>