<?xml version="1.0" encoding="UTF-8"?><svg id="Capa_2" xmlns="http://www.w3.org/2000/svg" viewBox="0 0 72.75 84.59"><defs><style>.cls-1{fill:none;stroke:#006769;stroke-linecap:round;stroke-linejoin:round;stroke-width:6px;}</style></defs><g id="Capa_1-2"><path class="cls-1" d="M32.67,11.73c0,4.82-4.98,8.73-11.12,8.73s-11.12-3.91-11.12-8.73S15.4,3,21.54,3s11.12,3.91,11.12,8.73ZM32.67,11.73h33.38M6.71,37.93h59.33c.98,0,1.93.46,2.62,1.28.7.82,1.09,1.93,1.09,3.09v2.18c0,6.55-9.33,24.33-14.83,28.38v4.37c0,1.16-.39,2.27-1.09,3.09-.7.82-1.64,1.28-2.62,1.28h-29.67c-.98,0-1.93-.46-2.62-1.28-.7-.82-1.09-1.93-1.09-3.09v-4.37c-6.26-4.6-14.83-21.83-14.83-28.38v-2.18c0-1.16.39-2.27,1.09-3.09.7-.82,1.64-1.28,2.62-1.28Z"/></g></svg>