<?xml version="1.0" encoding="UTF-8"?><svg id="Capa_2" xmlns="http://www.w3.org/2000/svg" viewBox="0 0 63.33 77.67"><defs><style>.cls-1{fill:none;stroke:#006769;stroke-linecap:round;stroke-linejoin:round;stroke-width:6px;}</style></defs><g id="Capa_1-2"><path class="cls-1" d="M31.67,10.17c1.9,0,3.72.76,5.07,2.1,1.34,1.34,2.1,3.17,2.1,5.07M31.67,10.17c-1.9,0-3.72.76-5.07,2.1s-2.1,3.17-2.1,5.07M31.67,10.17c0-1.79,1.43-5.73,7.17-7.17M38.83,17.33c0,1.9-.76,3.72-2.1,5.07-1.34,1.34-3.17,2.1-5.07,2.1s-3.72-.76-5.07-2.1-2.1-3.17-2.1-5.07M38.83,17.33c7.92,0,14.69,8.93,9.85,14.62,5.83-1.22,11.65,3.1,11.65,8.79,0,10.58-16.71,12.09-18.92,1.8-2.02,9.38-17.47,9.38-19.49,0-2.21,10.29-18.92,8.78-18.92-1.8,0-5.69,5.81-10.01,11.65-8.79-4.83-5.69,1.94-14.62,9.85-14.62M10.17,49.58l4.2,14.69c1.43,5,2.15,7.5,4.06,8.95,1.92,1.44,4.52,1.44,9.72,1.44h7.04c5.2,0,7.8,0,9.72-1.44,1.91-1.45,2.63-3.95,4.06-8.95l4.2-14.69"/></g></svg>