<?xml version="1.0" encoding="UTF-8"?><svg id="Capa_2" xmlns="http://www.w3.org/2000/svg" viewBox="0 0 71.25 71.25"><defs><style>.cls-1{fill:#006769;}</style></defs><g id="Capa_1-2"><path class="cls-1" d="M57.4,0H7.92C3.56,0,0,3.56,0,7.92v22.6c0,15.16,11.68,28.42,26.84,28.86,15.67.47,28.58-12.11,28.58-27.71v-3.96h1.98c7.64,0,13.85-6.21,13.85-13.85S65.04,0,57.4,0ZM47.5,7.92v11.88H7.92V7.92h39.58ZM47.5,27.71v3.96c0,10.93-8.87,19.79-19.79,19.79S7.92,42.59,7.92,31.67v-3.96M57.4,19.79h-1.98V7.92h1.98c3.29,0,5.94,2.65,5.94,5.94s-2.65,5.94-5.94,5.94ZM0,63.33h63.33v7.92H0v-7.92Z"/></g></svg>