<?xml version="1.0" encoding="UTF-8"?><svg id="Capa_2" xmlns="http://www.w3.org/2000/svg" viewBox="0 0 72.21 71"><defs><style>.cls-1{fill:#006769;fill-rule:evenodd;}</style></defs><g id="Capa_1-2"><path class="cls-1" d="M25.76,1.14c.53,0,1.04.21,1.41.59.38.38.59.89.59,1.43v13.35c0,.54-.21,1.05-.59,1.43-.38.38-.88.59-1.41.59s-1.04-.21-1.41-.59c-.38-.38-.59-.89-.59-1.43V3.17c0-.54.21-1.05.59-1.43.38-.38.88-.59,1.41-.59Z"/><path class="cls-1" d="M11.56,13.97c2.26-.55,4.57-.13,6.96,1.12,1.95,1.02,3.33,1.49,4.41,1.71,1.08.23,1.93.23,2.97.23v4.05h-.04c-1.03,0-2.24,0-3.74-.31-1.51-.32-3.24-.93-5.44-2.08-1.76-.92-3.08-1.05-4.19-.78-1.17.28-2.4,1.07-3.82,2.56-3.26,3.41-4.28,6.93-4.63,9.63-.2,3.33.39,9.89,3.34,16.31,1,2.18,2.42,5.2,4.15,7.56.86,1.18,1.73,2.08,2.57,2.64.81.54,1.48.69,2.09.58,6.25-1.09,7.42-1.11,8.64-1.11h2.07v4.05h-2.13c-.84,0-1.84,0-7.9,1.06-1.88.33-3.57-.26-4.98-1.19-1.38-.92-2.57-2.24-3.57-3.61-2.01-2.74-3.58-6.12-4.57-8.27C.47,40.96-.2,33.67.05,29.77v-.06s.01-.06.01-.06c.42-3.33,1.69-7.77,5.73-11.99,1.69-1.77,3.57-3.15,5.77-3.68"/><path class="cls-1" d="M17.28,8.92c2.99,2.89,4.61,6.4,4.61,9.12,0,.54.21,1.05.59,1.43.38.38.88.59,1.41.59s1.04-.21,1.41-.59c.38-.38.59-.89.59-1.43,0-4.15-2.34-8.65-5.85-12.05C16.49,2.56,11.49,0,5.79,0c-.53,0-1.04.21-1.41.59-.38.38-.59.89-.59,1.43s.21,1.05.59,1.43.88.59,1.41.59c4.49,0,8.54,2.02,11.49,4.88"/><path class="cls-1" d="M5.15.02c.53-.07,1.06.08,1.48.41.42.33.69.81.76,1.35.98,7.95,7.89,12.14,13.47,14.39.49.2.89.59,1.1,1.08.21.49.22,1.05.02,1.55-.2.5-.58.9-1.07,1.11-.49.21-1.04.22-1.53.02C13.63,17.6,4.69,12.63,3.41,2.28c-.07-.53.08-1.07.41-1.49.33-.42.8-.7,1.33-.77ZM39.53,13.96c-2.3-.53-4.67-.13-7.14,1.11-2.04,1.02-3.49,1.5-4.63,1.73-1.14.23-2.04.23-3.12.23-.53,0-1.04.21-1.41.59-.38.38-.59.89-.59,1.43s.21,1.05.59,1.43c.38.38.88.59,1.41.59h.04c1.07,0,2.32,0,3.86-.31,1.56-.31,3.35-.93,5.63-2.07,1.85-.93,3.26-1.07,4.47-.79,1.25.29,2.55,1.1,4.03,2.58,3.43,3.44,4.47,6.98,4.83,9.68.08.53.36,1,.78,1.32s.95.46,1.47.39c.52-.07.99-.35,1.31-.77.32-.42.47-.95.41-1.48-.44-3.34-1.77-7.79-5.97-12.01-1.76-1.77-3.7-3.13-5.96-3.65ZM41.42,55.19c-.19-.18-.41-.33-.66-.43-.24-.1-.51-.14-.77-.14-.26,0-.52.06-.76.17s-.46.26-.64.45c-1.51,1.59-2.79,2.12-3.86,1.95-6.5-1.09-7.72-1.11-8.97-1.11-.53,0-1.04.21-1.41.59-.38.38-.59.89-.59,1.43s.21,1.05.59,1.43c.38.38.88.59,1.41.59h.06c.89,0,1.93,0,8.26,1.06,3.04.51,5.57-1.21,7.4-3.13.18-.19.33-.42.42-.66.1-.25.14-.51.14-.78,0-.27-.06-.53-.17-.77-.11-.24-.26-.46-.45-.65Z"/><path class="cls-1" d="M53.31,18.41c-2.01,3.66-2.53,7.5-1.73,10.1.08.25.11.52.08.78-.02.26-.1.52-.22.76-.12.24-.29.44-.49.61s-.43.3-.69.38-.51.11-.78.08c-.26-.02-.52-.1-.75-.22-.23-.12-.44-.29-.61-.5-.17-.2-.29-.44-.37-.69-1.22-3.96-.31-8.96,2.05-13.26,2.39-4.35,6.41-8.3,11.85-10.01.25-.08.51-.11.78-.08.26.02.52.1.75.22.23.12.44.29.61.5.17.2.29.44.37.69.08.25.11.52.08.79-.02.26-.1.52-.22.76-.12.24-.29.44-.49.61s-.43.3-.69.38c-4.29,1.35-7.56,4.49-9.54,8.11Z"/><path class="cls-1" d="M57.45,21c-2.34,3.46-5.5,5.65-8.15,6.1-.26.04-.51.13-.74.27-.23.14-.42.32-.58.54s-.27.46-.33.72c-.06.26-.07.53-.03.8.04.26.14.52.28.75.14.23.33.42.54.58.22.15.46.26.72.32.26.06.53.06.79.01,4.05-.68,8.06-3.74,10.8-7.8,2.78-4.11,4.45-9.52,3.52-15.2-.04-.26-.14-.51-.28-.74-.14-.23-.32-.42-.53-.58-.21-.15-.46-.27-.71-.33-.26-.06-.52-.07-.78-.03-.26.04-.51.14-.73.28-.22.14-.42.32-.57.54-.15.22-.26.46-.32.72-.06.26-.07.53-.03.79.73,4.48-.58,8.85-2.88,12.26"/><path class="cls-1" d="M51.57,32.37c-1.33,0-2.6.53-3.54,1.48-.94.95-1.46,2.23-1.46,3.58s.53,2.63,1.46,3.58c.94.95,2.21,1.48,3.54,1.48s2.6-.53,3.54-1.48c.94-.95,1.46-2.23,1.46-3.58s-.53-2.63-1.46-3.58c-.94-.95-2.21-1.48-3.54-1.48ZM42.57,37.42c0-1.2.23-2.38.69-3.48.45-1.1,1.12-2.11,1.95-2.95.84-.85,1.83-1.52,2.92-1.97,1.09-.46,2.26-.69,3.44-.69s2.35.24,3.44.69c1.09.46,2.08,1.13,2.92,1.97.84.85,1.5,1.85,1.95,2.95.45,1.1.69,2.29.69,3.48,0,2.41-.95,4.73-2.64,6.44-1.69,1.71-3.98,2.67-6.36,2.67s-4.68-.96-6.36-2.67c-1.69-1.71-2.64-4.02-2.64-6.44Z"/><path class="cls-1" d="M63.7,22.43c2.25.82,4.08,2.5,5.1,4.68,1.02,2.18,1.14,4.69.33,6.96-.09.25-.23.48-.4.68-.18.2-.39.36-.63.47-.24.11-.49.18-.76.19-.26.01-.52-.03-.77-.12-.25-.09-.47-.23-.67-.41-.19-.18-.35-.39-.46-.63-.11-.24-.18-.5-.19-.77-.01-.27.03-.53.12-.78.45-1.26.38-2.65-.18-3.87-.57-1.21-1.58-2.15-2.83-2.6-1.25-.45-2.62-.39-3.82.19-1.2.57-2.13,1.6-2.57,2.87-.19.49-.56.89-1.03,1.11-.47.22-1.02.24-1.51.06-.49-.18-.89-.54-1.12-1.02-.23-.47-.26-1.02-.1-1.52.81-2.27,2.47-4.13,4.63-5.16,2.16-1.03,4.63-1.15,6.88-.34Z"/><path class="cls-1" d="M60.51,32.72c2.05-.59,4.24-.43,6.18.45,1.94.88,3.51,2.44,4.43,4.38.92,1.94,1.12,4.16.58,6.24-.54,2.08-1.8,3.9-3.54,5.14-.22.16-.46.27-.72.33-.26.06-.53.07-.79.03-.26-.04-.51-.14-.74-.29-.22-.14-.42-.33-.57-.55-.15-.22-.26-.47-.32-.73-.06-.26-.06-.53,0-.8.05-.26.15-.52.3-.74.15-.22.34-.42.56-.57.55-.39,1.02-.89,1.37-1.46.36-.58.59-1.22.7-1.89.11-.67.08-1.36-.09-2.02-.16-.66-.45-1.28-.86-1.82-.4-.54-.91-1-1.49-1.34-.58-.34-1.23-.56-1.89-.64-.67-.08-1.34-.03-1.99.16-.65.19-1.25.51-1.77.93-.2.17-.44.29-.69.37-.25.08-.52.1-.78.07-.26-.03-.51-.11-.75-.23-.23-.13-.44-.3-.6-.5-.17-.21-.29-.44-.36-.7-.08-.25-.1-.52-.07-.79.03-.26.1-.52.23-.75.12-.23.29-.44.5-.61.94-.77,2.02-1.34,3.18-1.68ZM43.57,44.5c-1.33,0-2.6.53-3.54,1.48-.94.95-1.46,2.23-1.46,3.58s.53,2.63,1.46,3.58c.94.95,2.21,1.48,3.54,1.48s2.6-.53,3.54-1.48c.94-.95,1.46-2.23,1.46-3.58s-.53-2.63-1.46-3.58c-.94-.95-2.21-1.48-3.54-1.48ZM34.57,49.56c0-2.41.95-4.73,2.64-6.44,1.69-1.71,3.98-2.67,6.36-2.67s4.68.96,6.36,2.67c1.69,1.71,2.64,4.02,2.64,6.44s-.95,4.73-2.64,6.44c-1.69,1.71-3.98,2.67-6.36,2.67s-4.68-.96-6.36-2.67c-1.69-1.71-2.64-4.02-2.64-6.44Z"/><path class="cls-1" d="M59.57,44.5c-1.33,0-2.6.53-3.54,1.48-.94.95-1.46,2.23-1.46,3.58s.53,2.63,1.46,3.58c.94.95,2.21,1.48,3.54,1.48s2.6-.53,3.54-1.48c.94-.95,1.46-2.23,1.46-3.58s-.53-2.63-1.46-3.58c-.94-.95-2.21-1.48-3.54-1.48ZM50.57,49.56c0-2.41.95-4.73,2.64-6.44,1.69-1.71,3.98-2.67,6.36-2.67s4.68.96,6.36,2.67c1.69,1.71,2.64,4.02,2.64,6.44s-.95,4.73-2.64,6.44c-1.69,1.71-3.98,2.67-6.36,2.67s-4.68-.96-6.36-2.67c-1.69-1.71-2.64-4.02-2.64-6.44Z"/><path class="cls-1" d="M51.57,56.64c-1.33,0-2.6.53-3.54,1.48-.94.95-1.46,2.23-1.46,3.58s.53,2.63,1.46,3.58c.94.95,2.21,1.48,3.54,1.48s2.6-.53,3.54-1.48c.94-.95,1.46-2.23,1.46-3.58s-.53-2.63-1.46-3.58c-.94-.95-2.21-1.48-3.54-1.48ZM42.57,61.7c0-1.2.23-2.38.69-3.48.45-1.1,1.12-2.11,1.95-2.95.84-.85,1.83-1.52,2.92-1.97,1.09-.46,2.26-.69,3.44-.69s2.35.24,3.44.69c1.09.46,2.08,1.13,2.92,1.97.84.85,1.5,1.85,1.95,2.95.45,1.1.69,2.29.69,3.48,0,2.41-.95,4.73-2.64,6.44-1.69,1.71-3.98,2.67-6.36,2.67s-4.68-.96-6.36-2.67c-1.69-1.71-2.64-4.02-2.64-6.44Z"/><path class="cls-1" d="M63.68,54.55c.09-.25.22-.48.4-.68.18-.2.39-.36.63-.47.24-.11.49-.18.76-.19.26-.01.52.03.77.12,1.27.46,2.42,1.2,3.37,2.17.95.97,1.67,2.14,2.11,3.43.44,1.29.59,2.66.44,4.01-.15,1.35-.6,2.66-1.32,3.81-.72,1.15-1.68,2.13-2.82,2.86s-2.43,1.19-3.76,1.34c-1.34.16-2.69,0-3.97-.44-1.27-.44-2.43-1.17-3.39-2.13-.19-.19-.35-.41-.45-.65-.11-.25-.16-.51-.17-.78,0-.27.05-.53.14-.78.1-.25.25-.48.43-.67.19-.19.41-.34.65-.45.24-.1.51-.16.77-.16.27,0,.53.05.77.16.24.1.47.26.65.45.53.53,1.18.94,1.88,1.18.71.25,1.46.33,2.2.24.74-.09,1.46-.34,2.09-.75.63-.4,1.17-.95,1.57-1.59.4-.64.65-1.36.73-2.12.09-.75,0-1.51-.24-2.23-.24-.72-.65-1.37-1.17-1.9-.53-.54-1.17-.95-1.87-1.2-.25-.09-.48-.23-.67-.41-.19-.18-.35-.39-.47-.63-.11-.24-.18-.5-.19-.77-.01-.27.03-.53.11-.78Z"/></g></svg>