<?xml version="1.0" encoding="UTF-8"?><svg id="Capa_2" xmlns="http://www.w3.org/2000/svg" viewBox="0 0 53.37 66.71"><defs><style>.cls-1{fill:#006769;}</style></defs><g id="Capa_1-2"><path class="cls-1" d="M2.34,0C.95,0-.13,1.2.01,2.57l6.69,62.07c.13,1.18,1.13,2.07,2.33,2.07h35.31c1.2,0,2.2-.89,2.33-2.07L53.35,2.57c.15-1.37-.94-2.57-2.33-2.57H2.34ZM7.94,9.26c-.16-1.38.93-2.58,2.33-2.58h32.87c1.39,0,2.47,1.18,2.33,2.55l-.68,6.76c-.09.89-.69,1.66-1.55,1.94-10.9,3.54-15.37.94-16.99-.21-.9-.63-2.19-2.07-4.56-3.07-2.37-1.03-5.6-1.3-9.38-.23-.08.02-.15.04-.22.06-1.66.45-3.59-.45-3.79-2.14l-.36-3.07ZM17.2,20.38c.68,0,1.08.13,1.47.3.83.33,1.58,1.17,3.23,2.33,2.78,1.98,8.88,4.34,18.53,2.48,1.62-.31,3.16.98,2.99,2.61l-3.22,29.86c-.13,1.18-1.13,2.07-2.33,2.07H15.5c-1.2,0-2.2-.9-2.33-2.08l-3.58-33.39c-.07-.65.16-1.28.71-1.64.23-.16.51-.34.83-.54,1.13-.67,2.52-1.36,2.93-1.52.04-.01.07-.02.11-.02.03,0,.07,0,.1-.01,1.34-.36,2.26-.49,2.93-.45Z"/></g></svg>