<?xml version="1.0" encoding="UTF-8"?><svg id="Capa_2" xmlns="http://www.w3.org/2000/svg" viewBox="0 0 65 74.6"><defs><style>.cls-1{fill:#006769;}</style></defs><g id="Capa_1-2"><path class="cls-1" d="M21,47.35l-4.58,5.54-4.45-5.38c-2.87,4.44-4.69,9.73-5.26,15.31h6.3v7.85H0v-3.93C0,47.74,11.18,31.92,26,28.27v-7.85L0,7.85V0h65v7.85l-26,12.56v7.85c14.82,3.65,26,19.47,26,38.48v3.93h-13v-7.85h6.31c-.58-5.58-2.4-10.88-5.26-15.31l-4.45,5.38-4.58-5.54,4.45-5.42c-3.69-3.46-8.08-5.66-12.71-6.36v7.62h-6.5v-7.62c-4.75.71-9.1,2.98-12.71,6.36l4.45,5.42ZM32.5,58.89c1.72,0,3.38.83,4.6,2.3,1.22,1.47,1.9,3.47,1.9,5.55s-.68,4.08-1.9,5.55c-1.22,1.47-2.87,2.3-4.6,2.3-1.04,0-2.01-.27-2.86-.82l-12.51-7.03,12.51-7.03c.85-.55,1.82-.82,2.86-.82Z"/></g></svg>