<?xml version="1.0" encoding="UTF-8"?><svg id="Capa_2" xmlns="http://www.w3.org/2000/svg" viewBox="0 0 67.42 80.06"><defs><style>.cls-1{fill:none;stroke:#006769;stroke-linecap:round;stroke-linejoin:round;stroke-width:5.5px;}</style></defs><g id="Capa_1-2"><path class="cls-1" d="M16.11,77.31h33.41M30.75,39.36c-2.02.02-3.98-.92-5.47-2.64-1.5-1.72-2.42-4.09-2.59-6.63-.17-2.54.43-5.08,1.68-7.09s3.05-3.35,5.05-3.75c-.32-1.79-.25-3.65.2-5.39.45-1.74,1.27-3.29,2.37-4.49,1.1-1.2,2.43-2,3.86-2.32,1.43-.32,2.9-.14,4.26.52.59-1.18,1.37-2.19,2.29-2.97.92-.78,1.95-1.31,3.04-1.56,1.09-.25,2.21-.21,3.28.11s2.09.92,2.97,1.76c1.54-1.53,3.47-2.29,5.43-2.15,1.96.15,3.81,1.2,5.19,2.95,1.39,1.75,2.22,4.08,2.33,6.55.12,2.47-.49,4.91-1.7,6.86.75,1.26,1.26,2.73,1.49,4.29.22,1.56.15,3.16-.21,4.68-.36,1.52-.99,2.91-1.85,4.06-.86,1.15-1.92,2.03-3.1,2.57.31,1.52.34,3.1.1,4.64M36.16,39.36l13.36-16.86M29.14,19.33c-1.83-2.47-4.21-4.18-6.83-4.91-2.61-.73-5.34-.46-7.83.79-2.49,1.25-4.62,3.42-6.12,6.22-1.5,2.8-2.29,6.11-2.28,9.49,0,3.08.67,5.94,1.8,8.43M32.82,77.31c7.97,0,15.62-4,21.26-11.11,5.64-7.12,8.81-16.77,8.81-26.83H2.75c0,10.06,3.17,19.72,8.81,26.83,5.64,7.12,13.29,11.11,21.26,11.11Z"/></g></svg>