<?xml version="1.0" encoding="UTF-8"?><svg id="Capa_2" xmlns="http://www.w3.org/2000/svg" viewBox="0 0 71.75 71.75"><defs><style>.cls-1{fill:#006769;}</style></defs><g id="Capa_1-2"><path class="cls-1" d="M71.75,67.41L4.37,0,0,4.34l10.9,10.9-2.63,1.47c-1.09.58-1.81,1.71-1.81,3.01v30.75c0,1.3.72,2.43,1.81,3.01l26.99,15.17c.55.41,1.23.62,1.95.62s1.4-.21,1.95-.62l16.09-9.05,12.16,12.16,4.34-4.34ZM13.29,48.45v-22.89l18.07,10.15,2.43,2.43v21.87l-20.5-11.55ZM40.62,60v-15.03l9.64,9.6-9.64,5.43ZM26.96,13.97l-4.92-4.99,13.22-7.45c.55-.41,1.23-.61,1.95-.61s1.4.2,1.95.61l26.99,15.17c1.09.58,1.81,1.71,1.81,3.01v30.75c0,1.2-.61,2.26-1.61,2.84l-5.23-5.23v-22.52l-14.42,8.1-5.02-5.02,15.89-8.92-20.36-11.45-10.25,5.71Z"/></g></svg>