<?xml version="1.0" encoding="UTF-8"?><svg id="Capa_2" xmlns="http://www.w3.org/2000/svg" viewBox="0 0 376.62 65.26"><defs><style>.cls-1{fill:#006769;}</style></defs><g id="Capa_1-2"><path class="cls-1" d="M127.99,48.15c-.92.24-1.92.37-2.99.37-3.26,0-5.7-.85-7.33-2.55-1.63-1.7-2.44-3.98-2.44-6.85v-9.27h-7.22v-7.11h7.22v-11.89h8.31v11.89h7.07v7.11h-7.07v8.19c0,1.01.25,1.91.76,2.68.51.77,1.37,1.16,2.59,1.16.68,0,1.34-.11,1.97-.33.63-.22,1.21-.49,1.75-.8v6.11c-.83.62-1.7,1.05-2.62,1.3Z"/><path class="cls-1" d="M157.44,31c-1.12,1.04-2.48,1.56-4.08,1.56-1.75,0-3.21-.64-4.37-1.93-.68.36-1.2.82-1.57,1.4-.37.58-.67,1.17-.91,1.79-.05.09-.11.27-.18.53-.07.27-.11.44-.11.53v13.03h-8.31v-25.25h8.31v3.65c.78-1.15,1.79-2.14,3.03-2.96,1.24-.82,2.61-1.23,4.12-1.23,1.6,0,2.96.51,4.08,1.53,1.12,1.02,1.68,2.24,1.68,3.65s-.56,2.65-1.68,3.69Z"/><path class="cls-1" d="M189.91,40.47c-.75,1.59-1.79,2.99-3.1,4.19-1.31,1.2-2.86,2.15-4.63,2.86-1.77.71-3.66,1.06-5.65,1.06s-3.88-.36-5.65-1.06c-1.77-.71-3.32-1.66-4.63-2.86-1.31-1.2-2.34-2.59-3.1-4.19-.75-1.59-1.13-3.3-1.13-5.12s.38-3.53,1.13-5.15c.75-1.62,1.79-3.02,3.1-4.22,1.31-1.2,2.85-2.15,4.63-2.86,1.77-.71,3.66-1.06,5.65-1.06s3.87.36,5.65,1.06c1.77.71,3.32,1.66,4.63,2.86,1.31,1.2,2.34,2.6,3.1,4.22.75,1.62,1.13,3.33,1.13,5.15s-.38,3.52-1.13,5.12ZM184.05,35.02c-.87.44-1.77.66-2.7.66-1.56,0-2.9-.51-4.05-1.53-1.14-1.02-1.71-2.24-1.71-3.65,0-.71.15-1.37.44-1.99-1.99.13-3.61.85-4.85,2.16-1.24,1.31-1.86,2.87-1.86,4.68,0,.93.18,1.81.55,2.62.36.82.86,1.54,1.49,2.16.63.62,1.4,1.11,2.3,1.46.9.36,1.86.53,2.88.53s2-.18,2.95-.53c.95-.35,1.76-.84,2.44-1.46.68-.62,1.21-1.34,1.6-2.16.39-.82.56-1.7.51-2.62v-.33Z"/><path class="cls-1" d="M227.2,48.15c-1.12.24-2.21.37-3.28.37-1.22,0-2.32-.23-3.32-.7-1-.47-1.83-1.07-2.51-1.83-.68-.75-1.21-1.62-1.6-2.59-.39-.97-.58-1.97-.58-2.99v-8.31c0-1.02-.29-1.89-.87-2.62-.58-.73-1.48-1.1-2.7-1.1s-2.19.32-2.92.96c-.73.64-1.29,1.45-1.68,2.43-.05.09-.12.31-.22.66-.1.36-.15.58-.15.66v14.82h-8.31v-25.25h8.31v2.46c.83-1.02,1.88-1.77,3.17-2.26,1.29-.49,2.61-.73,3.97-.73s2.71.24,3.9.73c1.19.49,2.21,1.15,3.06,1.99.85.84,1.52,1.82,2,2.92.49,1.11.73,2.28.73,3.52v8.11c0,.75.29,1.34.87,1.76.58.42,1.26.63,2.04.63,1.12,0,2.14-.35,3.06-1.06v6.11c-.87.62-1.87,1.05-2.99,1.3Z"/><path class="cls-1" d="M260.98,40.47c-.75,1.59-1.79,2.99-3.1,4.19-1.31,1.2-2.85,2.15-4.63,2.86-1.77.71-3.66,1.06-5.65,1.06s-3.88-.36-5.65-1.06c-1.77-.71-3.32-1.66-4.63-2.86-1.31-1.2-2.35-2.59-3.1-4.19-.75-1.59-1.13-3.3-1.13-5.12s.37-3.53,1.13-5.15c.75-1.62,1.79-3.02,3.1-4.22,1.31-1.2,2.85-2.15,4.63-2.86,1.77-.71,3.66-1.06,5.65-1.06s3.87.36,5.65,1.06c1.77.71,3.32,1.66,4.63,2.86,1.31,1.2,2.34,2.6,3.1,4.22.75,1.62,1.13,3.33,1.13,5.15s-.38,3.52-1.13,5.12ZM255.11,35.02c-.88.44-1.77.66-2.7.66-1.56,0-2.9-.51-4.05-1.53-1.14-1.02-1.71-2.24-1.71-3.65,0-.71.15-1.37.44-1.99-1.99.13-3.61.85-4.85,2.16-1.24,1.31-1.86,2.87-1.86,4.68,0,.93.18,1.81.55,2.62.37.82.86,1.54,1.49,2.16.63.62,1.4,1.11,2.3,1.46.9.36,1.86.53,2.88.53s2.01-.18,2.95-.53c.95-.35,1.76-.84,2.44-1.46.68-.62,1.21-1.34,1.6-2.16.39-.82.56-1.7.51-2.62v-.33Z"/><path class="cls-1" d="M315.18,48.15c-1.12.24-2.24.37-3.35.37-1.21,0-2.31-.23-3.28-.7-.97-.47-1.81-1.07-2.51-1.83-.7-.75-1.24-1.62-1.6-2.59-.37-.97-.55-1.97-.55-2.99v-8.31c0-1.02-.3-1.89-.91-2.62-.61-.73-1.52-1.1-2.73-1.1s-2.11.32-2.84.96c-.73.64-1.29,1.45-1.68,2.43-.05.09-.13.31-.25.66-.12.36-.18.58-.18.66v14.82h-8.31v-15.82c0-1.02-.29-1.89-.87-2.62-.58-.73-1.48-1.1-2.7-1.1s-2.19.32-2.92.96c-.73.64-1.29,1.45-1.68,2.43-.05.09-.12.3-.22.63-.1.33-.15.54-.15.63v14.89h-8.31v-25.25h8.31v2.46c.83-1.02,1.88-1.77,3.17-2.26,1.29-.49,2.61-.73,3.97-.73,1.65,0,3.16.33,4.52,1,1.36.66,2.5,1.62,3.43,2.86.82-1.42,2-2.41,3.53-2.99,1.53-.58,3.12-.86,4.77-.86,1.46,0,2.82.22,4.08.66,1.26.44,2.36,1.06,3.28,1.86.92.8,1.64,1.76,2.15,2.89.51,1.13.76,2.38.76,3.76v8.11c0,.75.29,1.34.87,1.76.58.42,1.29.63,2.11.63,1.12,0,2.11-.35,2.99-1.06v6.11c-.82.62-1.8,1.05-2.91,1.3Z"/><path class="cls-1" d="M323.41,19.74l-4.59-4.19,11.73-10.7,4.59,4.25-11.73,10.63ZM334.42,48.15c-1.12.24-2.21.37-3.28.37-1.21,0-2.31-.23-3.28-.7-.97-.47-1.81-1.07-2.51-1.83-.7-.75-1.24-1.62-1.6-2.59-.37-.97-.55-1.97-.55-2.99v-17.74h8.24v16.75c0,.75.29,1.34.88,1.76.58.42,1.26.63,2.04.63,1.17,0,2.19-.35,3.06-1.06v6.11c-.87.62-1.87,1.05-2.99,1.3Z"/><path class="cls-1" d="M44.21,18.87c-.75,1.51-1.76,2.82-3.02,3.95-1.26,1.13-2.73,2.02-4.41,2.66-1.68.64-3.46.96-5.36.96-.58,0-1.24-.06-1.97-.17-.73-.11-1.47-.28-2.22-.5-.75-.22-1.47-.47-2.15-.73-.68-.27-1.26-.58-1.75-.93l3.35-6.85c.68.49,1.42.83,2.22,1.03.8.2,1.62.3,2.44.3.63,0,1.29-.12,1.97-.36.68-.24,1.29-.58,1.82-1,.53-.42.97-.91,1.31-1.46.34-.55.51-1.14.51-1.76,0-1.2-.35-2.19-1.06-2.99-.7-.8-1.58-1.44-2.62-1.93-1.05-.49-2.19-.83-3.43-1.03-1.24-.2-2.37-.3-3.39-.3-2.58,0-4.92.5-7.03,1.5-2.11,1-3.94,2.3-5.47,3.92-1.53,1.62-2.72,3.48-3.57,5.58-.85,2.1-1.28,4.26-1.28,6.48s.28,4.2.84,6.08c.56,1.88,1.43,3.52,2.62,4.92,1.19,1.4,2.72,2.5,4.59,3.32,1.87.82,4.09,1.23,6.67,1.23,1.51,0,3.04-.14,4.59-.43,1.55-.29,2.92-.9,4.08-1.83v-8.04h9.11v23.39c0,2.88-.68,5.17-2.04,6.88-1.36,1.7-3.38,3.2-6.05,4.49l-4.88-6.78c1.36-.18,2.34-.69,2.95-1.53.61-.84.91-1.86.91-3.06v-7.51c-1.31.8-2.75,1.35-4.3,1.66-1.56.31-3.11.47-4.66.47-3.74,0-7.07-.6-9.99-1.79-2.92-1.2-5.38-2.83-7.4-4.92-2.02-2.08-3.55-4.54-4.59-7.38-1.05-2.83-1.57-5.89-1.57-9.17s.66-6.65,1.97-9.7c1.31-3.06,3.15-5.74,5.5-8.04,2.36-2.3,5.15-4.13,8.38-5.48,3.23-1.35,6.77-2.03,10.61-2.03,2.38,0,4.7.28,6.96.83,2.26.55,4.28,1.42,6.05,2.59,1.77,1.17,3.2,2.64,4.26,4.39,1.07,1.75,1.6,3.82,1.6,6.21,0,1.73-.38,3.35-1.13,4.85Z"/><path class="cls-1" d="M83.02,48.15c-1.12.24-2.24.37-3.35.37-1.6,0-3.02-.42-4.26-1.26-1.24-.84-2.2-1.93-2.88-3.26-1.07,1.55-2.41,2.69-4.01,3.42-1.6.73-3.4,1.1-5.39,1.1s-3.89-.36-5.54-1.06c-1.65-.71-3.06-1.66-4.23-2.86-1.17-1.2-2.07-2.59-2.7-4.19-.63-1.59-.95-3.3-.95-5.12s.32-3.46.95-5.05c.63-1.59,1.53-2.99,2.7-4.19,1.17-1.2,2.57-2.15,4.23-2.86,1.65-.71,3.5-1.06,5.54-1.06,1.7,0,3.28.28,4.74.83,1.46.55,2.75,1.43,3.86,2.62v-2.92h8.31v16.75c0,.75.28,1.34.84,1.76.56.42,1.25.63,2.08.63,1.12,0,2.14-.35,3.06-1.06v6.11c-.88.62-1.87,1.05-2.99,1.29ZM71.72,32.69c-.54-1.28-1.4-2.33-2.59-3.12-1.19-.8-2.54-1.2-4.05-1.2-1.02,0-1.97.19-2.84.56-.88.38-1.63.89-2.26,1.53-.63.64-1.13,1.37-1.49,2.19-.36.82-.55,1.7-.55,2.62s.18,1.81.55,2.62c.36.82.86,1.55,1.49,2.19.63.64,1.38,1.15,2.26,1.53.88.38,1.82.56,2.84.56,1.51,0,2.85-.4,4.05-1.2,1.19-.8,2.05-1.84,2.59-3.12v-5.18Z"/><path class="cls-1" d="M103.07,43.66c-.39.97-.95,1.82-1.68,2.53-.73.71-1.6,1.27-2.62,1.7-1.02.42-2.14.63-3.35.63-1.07,0-2.19-.09-3.35-.26-1.17-.18-2.21-.5-3.13-.99v-6.99c.44.4,1.03.8,1.79,1.2.75.4,1.44.6,2.08.6.78,0,1.41-.2,1.89-.6.49-.4.73-.96.73-1.67,0-.67-.24-1.35-.73-2.07-.49-.71-1.01-1.47-1.57-2.27-.56-.8-1.08-1.62-1.57-2.47-.49-.84-.73-1.73-.73-2.67,0-3.91,1.99-6.71,5.98-8.4l4.67,5.18c-.73.36-1.31.78-1.75,1.26-.44.49-.66,1.13-.66,1.93,0,.58.24,1.21.73,1.89.49.69,1.01,1.45,1.57,2.29.56.84,1.08,1.76,1.57,2.76.49,1,.73,2.09.73,3.29,0,1.11-.19,2.15-.58,3.12Z"/><path class="cls-1" d="M373.63,48.15c-1.12.24-2.24.37-3.35.37-1.6,0-3.02-.42-4.26-1.26-1.24-.84-2.2-1.93-2.88-3.26-1.07,1.55-2.41,2.69-4.01,3.42-1.6.73-3.4,1.1-5.39,1.1s-3.89-.36-5.54-1.06c-1.65-.71-3.06-1.66-4.23-2.86-1.17-1.2-2.07-2.59-2.7-4.19-.63-1.59-.95-3.3-.95-5.12s.31-3.46.95-5.05c.63-1.59,1.53-2.99,2.7-4.19,1.17-1.2,2.57-2.15,4.23-2.86,1.65-.71,3.5-1.06,5.54-1.06,1.7,0,3.28.28,4.74.83,1.46.55,2.74,1.43,3.86,2.62v-2.92h8.31v16.75c0,.75.28,1.34.84,1.76.56.42,1.25.63,2.08.63,1.12,0,2.14-.35,3.06-1.06v6.11c-.87.62-1.87,1.05-2.99,1.29ZM362.34,32.69c-.54-1.28-1.4-2.33-2.59-3.12-1.19-.8-2.54-1.2-4.04-1.2-1.02,0-1.97.19-2.84.56-.88.38-1.63.89-2.26,1.53-.63.64-1.13,1.37-1.49,2.19-.37.82-.55,1.7-.55,2.62s.18,1.81.55,2.62c.37.82.86,1.55,1.49,2.19.63.64,1.38,1.15,2.26,1.53.87.38,1.82.56,2.84.56,1.5,0,2.85-.4,4.04-1.2s2.05-1.84,2.59-3.12v-5.18Z"/></g></svg>