<?xml version="1.0" encoding="UTF-8"?>
<svg xmlns="http://www.w3.org/2000/svg" version="1.1" viewBox="0 0 376.6 65.3">
  <defs>
    <style>
      .cls-1 {
        fill: #fff;
      }
    </style>
  </defs>
  <!-- Generator: Adobe Illustrator 28.7.1, SVG Export Plug-In . SVG Version: 1.2.0 Build 142)  -->
  <g>
    <g id="Capa_2">
      <g id="Capa_1-2">
        <path class="cls-1" d="M128,48.2c-.9.2-1.9.4-3,.4-3.3,0-5.7-.8-7.3-2.5-1.6-1.7-2.4-4-2.4-6.8v-9.3h-7.2v-7.1h7.2v-11.9h8.3v11.9h7.1v7.1h-7.1v8.2c0,1,.2,1.9.8,2.7s1.4,1.2,2.6,1.2,1.3-.1,2-.3,1.2-.5,1.8-.8v6.1c-.8.6-1.7,1-2.6,1.3h0Z"/>
        <path class="cls-1" d="M157.4,31c-1.1,1-2.5,1.6-4.1,1.6s-3.2-.6-4.4-1.9c-.7.4-1.2.8-1.6,1.4-.4.6-.7,1.2-.9,1.8,0,0-.1.3-.2.5,0,.3-.1.4-.1.5v13h-8.3v-25.2h8.3v3.6c.8-1.1,1.8-2.1,3-3,1.2-.8,2.6-1.2,4.1-1.2s3,.5,4.1,1.5,1.7,2.2,1.7,3.6-.6,2.6-1.7,3.7h0Z"/>
        <path class="cls-1" d="M189.9,40.5c-.8,1.6-1.8,3-3.1,4.2-1.3,1.2-2.9,2.2-4.6,2.9s-3.7,1.1-5.6,1.1-3.9-.4-5.6-1.1c-1.8-.7-3.3-1.7-4.6-2.9s-2.3-2.6-3.1-4.2c-.8-1.6-1.1-3.3-1.1-5.1s.4-3.5,1.1-5.1c.8-1.6,1.8-3,3.1-4.2,1.3-1.2,2.9-2.1,4.6-2.9,1.8-.7,3.7-1.1,5.6-1.1s3.9.4,5.6,1.1c1.8.7,3.3,1.7,4.6,2.9s2.3,2.6,3.1,4.2c.8,1.6,1.1,3.3,1.1,5.1s-.4,3.5-1.1,5.1ZM184.1,35c-.9.4-1.8.7-2.7.7-1.6,0-2.9-.5-4.1-1.5-1.1-1-1.7-2.2-1.7-3.6s.1-1.4.4-2c-2,.1-3.6.9-4.9,2.2s-1.9,2.9-1.9,4.7.2,1.8.6,2.6c.4.8.9,1.5,1.5,2.2s1.4,1.1,2.3,1.5c.9.4,1.9.5,2.9.5s2-.2,2.9-.5,1.8-.8,2.4-1.5c.7-.6,1.2-1.3,1.6-2.2s.6-1.7.5-2.6v-.3h0Z"/>
        <path class="cls-1" d="M227.2,48.2c-1.1.2-2.2.4-3.3.4s-2.3-.2-3.3-.7-1.8-1.1-2.5-1.8c-.7-.8-1.2-1.6-1.6-2.6s-.6-2-.6-3v-8.3c0-1-.3-1.9-.9-2.6s-1.5-1.1-2.7-1.1-2.2.3-2.9,1-1.3,1.5-1.7,2.4c0,0-.1.3-.2.7-.1.4-.1.6-.1.7v14.8h-8.3v-25.2h8.3v2.5c.8-1,1.9-1.8,3.2-2.3s2.6-.7,4-.7,2.7.2,3.9.7c1.2.5,2.2,1.1,3.1,2,.9.8,1.5,1.8,2,2.9.5,1.1.7,2.3.7,3.5v8.1c0,.8.3,1.3.9,1.8s1.3.6,2,.6c1.1,0,2.1-.3,3.1-1.1v6.1c-.9.6-1.9,1-3,1.3h0Z"/>
        <path class="cls-1" d="M261,40.5c-.8,1.6-1.8,3-3.1,4.2-1.3,1.2-2.9,2.2-4.6,2.9-1.8.7-3.7,1.1-5.6,1.1s-3.9-.4-5.6-1.1c-1.8-.7-3.3-1.7-4.6-2.9s-2.4-2.6-3.1-4.2c-.8-1.6-1.1-3.3-1.1-5.1s.4-3.5,1.1-5.1c.8-1.6,1.8-3,3.1-4.2,1.3-1.2,2.9-2.1,4.6-2.9,1.8-.7,3.7-1.1,5.6-1.1s3.9.4,5.6,1.1c1.8.7,3.3,1.7,4.6,2.9s2.3,2.6,3.1,4.2c.8,1.6,1.1,3.3,1.1,5.1s-.4,3.5-1.1,5.1ZM255.1,35c-.9.4-1.8.7-2.7.7-1.6,0-2.9-.5-4.1-1.5-1.1-1-1.7-2.2-1.7-3.6s.1-1.4.4-2c-2,.1-3.6.9-4.9,2.2s-1.9,2.9-1.9,4.7.2,1.8.6,2.6c.4.8.9,1.5,1.5,2.2s1.4,1.1,2.3,1.5c.9.4,1.9.5,2.9.5s2-.2,2.9-.5c.9-.3,1.8-.8,2.4-1.5.7-.6,1.2-1.3,1.6-2.2s.6-1.7.5-2.6v-.3h0Z"/>
        <path class="cls-1" d="M315.2,48.2c-1.1.2-2.2.4-3.4.4s-2.3-.2-3.3-.7-1.8-1.1-2.5-1.8c-.7-.8-1.2-1.6-1.6-2.6-.4-1-.5-2-.5-3v-8.3c0-1-.3-1.9-.9-2.6-.6-.7-1.5-1.1-2.7-1.1s-2.1.3-2.8,1-1.3,1.5-1.7,2.4c0,0-.1.3-.2.7-.1.4-.2.6-.2.7v14.8h-8.3v-15.8c0-1-.3-1.9-.9-2.6s-1.5-1.1-2.7-1.1-2.2.3-2.9,1-1.3,1.5-1.7,2.4c0,0-.1.3-.2.6-.1.3-.1.5-.1.6v14.9h-8.3v-25.2h8.3v2.5c.8-1,1.9-1.8,3.2-2.3s2.6-.7,4-.7,3.2.3,4.5,1c1.4.7,2.5,1.6,3.4,2.9.8-1.4,2-2.4,3.5-3s3.1-.9,4.8-.9,2.8.2,4.1.7c1.3.4,2.4,1.1,3.3,1.9.9.8,1.6,1.8,2.1,2.9.5,1.1.8,2.4.8,3.8v8.1c0,.8.3,1.3.9,1.8s1.3.6,2.1.6,2.1-.3,3-1.1v6.1c-.8.6-1.8,1-2.9,1.3h0Z"/>
        <path class="cls-1" d="M323.4,19.7l-4.6-4.2,11.7-10.7,4.6,4.2-11.7,10.6h0ZM334.4,48.2c-1.1.2-2.2.4-3.3.4s-2.3-.2-3.3-.7-1.8-1.1-2.5-1.8c-.7-.8-1.2-1.6-1.6-2.6-.4-1-.5-2-.5-3v-17.7h8.2v16.8c0,.8.3,1.3.9,1.8.6.4,1.3.6,2,.6,1.2,0,2.2-.3,3.1-1.1v6.1c-.9.6-1.9,1-3,1.3h0Z"/>
        <path class="cls-1" d="M44.2,18.9c-.8,1.5-1.8,2.8-3,4-1.3,1.1-2.7,2-4.4,2.7s-3.5,1-5.4,1-1.2,0-2-.2-1.5-.3-2.2-.5-1.5-.5-2.1-.7c-.7-.3-1.3-.6-1.8-.9l3.4-6.9c.7.5,1.4.8,2.2,1s1.6.3,2.4.3,1.3-.1,2-.4,1.3-.6,1.8-1,1-.9,1.3-1.5.5-1.1.5-1.8c0-1.2-.3-2.2-1.1-3-.7-.8-1.6-1.4-2.6-1.9-1-.5-2.2-.8-3.4-1s-2.4-.3-3.4-.3c-2.6,0-4.9.5-7,1.5s-3.9,2.3-5.5,3.9c-1.5,1.6-2.7,3.5-3.6,5.6-.9,2.1-1.3,4.3-1.3,6.5s.3,4.2.8,6.1,1.4,3.5,2.6,4.9c1.2,1.4,2.7,2.5,4.6,3.3,1.9.8,4.1,1.2,6.7,1.2s3-.1,4.6-.4c1.5-.3,2.9-.9,4.1-1.8v-8h9.1v23.4c0,2.9-.7,5.2-2,6.9-1.4,1.7-3.4,3.2-6,4.5l-4.9-6.8c1.4-.2,2.3-.7,3-1.5s.9-1.9.9-3.1v-7.5c-1.3.8-2.8,1.3-4.3,1.7-1.6.3-3.1.5-4.7.5-3.7,0-7.1-.6-10-1.8-2.9-1.2-5.4-2.8-7.4-4.9-2-2.1-3.5-4.5-4.6-7.4C.5,31.6,0,28.5,0,25.2s.7-6.6,2-9.7c1.3-3.1,3.2-5.7,5.5-8,2.4-2.3,5.1-4.1,8.4-5.5C19.1.7,22.6,0,26.4,0s4.7.3,7,.8c2.3.6,4.3,1.4,6,2.6,1.8,1.2,3.2,2.6,4.3,4.4,1.1,1.7,1.6,3.8,1.6,6.2s-.4,3.4-1.1,4.9h0Z"/>
        <path class="cls-1" d="M83,48.2c-1.1.2-2.2.4-3.3.4-1.6,0-3-.4-4.3-1.3-1.2-.8-2.2-1.9-2.9-3.3-1.1,1.5-2.4,2.7-4,3.4-1.6.7-3.4,1.1-5.4,1.1s-3.9-.4-5.5-1.1c-1.7-.7-3.1-1.7-4.2-2.9s-2.1-2.6-2.7-4.2c-.6-1.6-1-3.3-1-5.1s.3-3.5,1-5,1.5-3,2.7-4.2c1.2-1.2,2.6-2.1,4.2-2.9,1.7-.7,3.5-1.1,5.5-1.1s3.3.3,4.7.8,2.8,1.4,3.9,2.6v-2.9h8.3v16.7c0,.8.3,1.3.8,1.8s1.2.6,2.1.6,2.1-.3,3.1-1.1v6.1c-.9.6-1.9,1-3,1.3h0ZM71.7,32.7c-.5-1.3-1.4-2.3-2.6-3.1-1.2-.8-2.5-1.2-4.1-1.2s-2,.2-2.8.6c-.9.4-1.6.9-2.3,1.5-.6.6-1.1,1.4-1.5,2.2-.4.8-.5,1.7-.5,2.6s.2,1.8.5,2.6c.4.8.9,1.5,1.5,2.2s1.4,1.2,2.3,1.5c.9.4,1.8.6,2.8.6,1.5,0,2.8-.4,4.1-1.2,1.2-.8,2.1-1.8,2.6-3.1v-5.2h0Z"/>
        <path class="cls-1" d="M103.1,43.7c-.4,1-.9,1.8-1.7,2.5s-1.6,1.3-2.6,1.7c-1,.4-2.1.6-3.3.6s-2.2,0-3.3-.3c-1.2-.2-2.2-.5-3.1-1v-7c.4.4,1,.8,1.8,1.2.8.4,1.4.6,2.1.6s1.4-.2,1.9-.6c.5-.4.7-1,.7-1.7s-.2-1.3-.7-2.1c-.5-.7-1-1.5-1.6-2.3s-1.1-1.6-1.6-2.5c-.5-.8-.7-1.7-.7-2.7,0-3.9,2-6.7,6-8.4l4.7,5.2c-.7.4-1.3.8-1.8,1.3-.4.5-.7,1.1-.7,1.9s.2,1.2.7,1.9c.5.7,1,1.5,1.6,2.3s1.1,1.8,1.6,2.8.7,2.1.7,3.3-.2,2.2-.6,3.1h0Z"/>
        <path class="cls-1" d="M373.6,48.2c-1.1.2-2.2.4-3.4.4-1.6,0-3-.4-4.3-1.3-1.2-.8-2.2-1.9-2.9-3.3-1.1,1.5-2.4,2.7-4,3.4-1.6.7-3.4,1.1-5.4,1.1s-3.9-.4-5.5-1.1c-1.6-.7-3.1-1.7-4.2-2.9s-2.1-2.6-2.7-4.2c-.6-1.6-1-3.3-1-5.1s.3-3.5,1-5c.6-1.6,1.5-3,2.7-4.2s2.6-2.1,4.2-2.9c1.6-.7,3.5-1.1,5.5-1.1s3.3.3,4.7.8,2.7,1.4,3.9,2.6v-2.9h8.3v16.7c0,.8.3,1.3.8,1.8s1.2.6,2.1.6,2.1-.3,3.1-1.1v6.1c-.9.6-1.9,1-3,1.3h0ZM362.3,32.7c-.5-1.3-1.4-2.3-2.6-3.1-1.2-.8-2.5-1.2-4-1.2s-2,.2-2.8.6c-.9.4-1.6.9-2.3,1.5-.6.6-1.1,1.4-1.5,2.2-.4.8-.5,1.7-.5,2.6s.2,1.8.5,2.6c.4.8.9,1.5,1.5,2.2s1.4,1.2,2.3,1.5c.9.4,1.8.6,2.8.6,1.5,0,2.9-.4,4-1.2s2-1.8,2.6-3.1v-5.2h0Z"/>
      </g>
    </g>
  </g>
</svg>